<svg xmlns="http://www.w3.org/2000/svg" xmlns:xlink="http://www.w3.org/1999/xlink" width="14.604" height="14.604" viewBox="0 0 14.604 14.604"><defs><linearGradient id="a" x1="0.5" x2="0.5" y2="1" gradientUnits="objectBoundingBox"><stop offset="0" stop-color="#fffcea"/><stop offset="1" stop-color="#ffe3be"/></linearGradient></defs><path d="M7.3,14.6A7.3,7.3,0,1,0,0,7.3,7.3,7.3,0,0,0,7.3,14.6ZM7.3,1.46A5.842,5.842,0,1,1,1.46,7.3,5.849,5.849,0,0,1,7.3,1.46Zm2.7,6.357a.729.729,0,0,0,0-1.031L7.088,3.865A.73.73,0,0,0,6.056,4.9L8.458,7.3l-2.4,2.4a.73.73,0,1,0,1.033,1.032l2.918-2.921Z" fill="url(#a)"/></svg>