<svg width="756" height="196" viewBox="0 0 756 196" fill="none" xmlns="http://www.w3.org/2000/svg">
<path d="M725.397 5.42986H653.108V38.5149H725.397V5.42986Z" fill="#E3E3E3" style="fill:#E3E3E3;fill:color(display-p3 0.8902 0.8902 0.8902);fill-opacity:1;"/>
<path fill-rule="evenodd" clip-rule="evenodd" d="M719.053 109V78.5139L690.917 122.483V136.696H731.22L750.847 108.583L719.053 109Z" fill="#E3E3E3" style="fill:#E3E3E3;fill:color(display-p3 0.8902 0.8902 0.8902);fill-opacity:1;"/>
<path fill-rule="evenodd" clip-rule="evenodd" d="M644.116 32.0742V2.46207H597.075V32.0742H605.112V59.9459L597.075 59.8577V90.3922L605.112 90.4804V105.383H597.075V136.695H632.671L644.116 120.429V105.383H636.208V80.6311L644.116 80.6151V50.0725L636.208 50.0966V32.0742H644.116Z" fill="#E3E3E3" style="fill:#E3E3E3;fill:color(display-p3 0.8902 0.8902 0.8902);fill-opacity:1;"/>
<path fill-rule="evenodd" clip-rule="evenodd" d="M727.804 56.7379V46.3993H650.693V81.0083H677.394L638.357 136.695H676.688L727.804 56.7379Z" fill="#E3E3E3" style="fill:#E3E3E3;fill:color(display-p3 0.8902 0.8902 0.8902);fill-opacity:1;"/>
<path fill-rule="evenodd" clip-rule="evenodd" d="M334.584 115.008L320.3 136.687H175.094V96.488L198.017 75.1933V106.875H205.164V76.6771H238.08V106.931H227.501V115.008H334.584Z" fill="#E3E3E3" style="fill:#E3E3E3;fill:color(display-p3 0.8902 0.8902 0.8902);fill-opacity:1;"/>
<path fill-rule="evenodd" clip-rule="evenodd" d="M237.655 35.371V8.64624H221.469V2.53452H191.232V8.64624H175.094V35.371H191.232V43.7926H175.094V47.9473L197.921 70.5093H237.655V43.7926H221.469V35.371H237.655Z" fill="#E3E3E3" style="fill:#E3E3E3;fill:color(display-p3 0.8902 0.8902 0.8902);fill-opacity:1;"/>
<path fill-rule="evenodd" clip-rule="evenodd" d="M305.967 68.913V8.09257H243.767V34.7612H275.432V44.4581H243.767V99.0705L251.852 108.054H305.967V82.2754H276.331V68.913H305.967Z" fill="#E3E3E3" style="fill:#E3E3E3;fill:color(display-p3 0.8902 0.8902 0.8902);fill-opacity:1;"/>
<path fill-rule="evenodd" clip-rule="evenodd" d="M157.361 72.7552L134.181 50.522H166.52L189.7 72.7552L166.52 93.8013H134.181L157.361 72.7552Z" fill="#E3E3E3" style="fill:#E3E3E3;fill:color(display-p3 0.8902 0.8902 0.8902);fill-opacity:1;"/>
<path d="M151.064 72.7552L127.885 93.8013H30.7068V50.522H127.885L151.064 72.7552Z" fill="#E3E3E3" style="fill:#E3E3E3;fill:color(display-p3 0.8902 0.8902 0.8902);fill-opacity:1;"/>
<path fill-rule="evenodd" clip-rule="evenodd" d="M485.388 7.29865V1.604H460.228V7.29865L456.979 7.33073V38.2262L460.228 38.3706V63.3789L466.7 75.9231L483.463 49.7197L478.154 38.3706H495.462L460.228 92.2611V136.687H477.688L486.238 117.903L494.788 136.687H512.538V97.1297L502.28 80.543L512.538 65.1354V38.3706H515.786V7.29865H485.388Z" fill="#E3E3E3" style="fill:#E3E3E3;fill:color(display-p3 0.8902 0.8902 0.8902);fill-opacity:1;"/>
<path fill-rule="evenodd" clip-rule="evenodd" d="M586.6 6.38427H520.783V42.2846H546.441L533.865 64.237H519.468L508.103 80.4628L517.27 95.0764H532.213V129.437L527.448 136.687H567.479L573.471 127.311V95.0764H587.403V64.237H574.906L586.6 43.5518V6.38427Z" fill="#E3E3E3" style="fill:#E3E3E3;fill:color(display-p3 0.8902 0.8902 0.8902);fill-opacity:1;"/>
<path fill-rule="evenodd" clip-rule="evenodd" d="M416.026 109.842L421.913 100.539H448.349V34.5047H392.1L403.923 51.0353H417.069V84.008H405.8L377.952 127.929L406.016 137.032H448.565V119.684L416.026 109.842ZM365.472 69.6672L366.442 68.1994L360.804 60.6279H350.273V51.0353H353.665L341.37 34.5047H318.19V100.539H345.124L356.016 84.008H350.273V69.6672H365.472ZM319.81 5.54226H317.629V28.6336H336.999L319.81 5.54226ZM371.383 5.54226L387.897 28.6336H448.076V5.54226H371.383Z" fill="#E3E3E3" style="fill:#E3E3E3;fill:color(display-p3 0.8902 0.8902 0.8902);fill-opacity:1;"/>
<path d="M411.165 68.0629L367.653 136.687H326.09L371.334 68.0629L324.55 5.19723H366.201L411.165 68.0629Z" fill="#FF9D2B" style="fill:#FF9D2B;fill:color(display-p3 1.0000 0.6157 0.1686);fill-opacity:1;"/>
<path d="M711.205 188V167.6H724.405V169.58H713.695V176.48H723.805V178.4H713.695V185.99H724.495V188H711.205Z" fill="white" style="fill:white;fill:white;fill-opacity:1;"/>
<path d="M644.133 167.6H652.833C654.633 167.6 655.983 167.77 656.883 168.11C657.803 168.43 658.433 168.98 658.773 169.76C659.133 170.54 659.313 171.7 659.313 173.24V173.93C659.313 175.03 659.213 175.92 659.013 176.6C658.813 177.26 658.503 177.76 658.083 178.1C657.683 178.44 657.143 178.68 656.463 178.82V178.88C657.243 179.02 657.833 179.27 658.233 179.63C658.633 179.97 658.913 180.5 659.073 181.22C659.233 181.94 659.313 182.98 659.313 184.34V188H656.823V185.24C656.823 183.58 656.733 182.41 656.553 181.73C656.373 181.03 655.993 180.57 655.413 180.35C654.833 180.11 653.853 179.99 652.473 179.99H646.593V188H644.133V167.6ZM653.283 178.04C654.203 178.04 654.913 177.93 655.413 177.71C655.933 177.47 656.293 177.09 656.493 176.57C656.713 176.03 656.823 175.27 656.823 174.29V173.54C656.823 172.38 656.713 171.53 656.493 170.99C656.273 170.45 655.853 170.08 655.233 169.88C654.613 169.68 653.643 169.58 652.323 169.58H646.593V178.04H653.283Z" fill="white" style="fill:white;fill:white;fill-opacity:1;"/>
<path d="M583.601 188.18C581.281 188.18 579.541 187.93 578.381 187.43C577.241 186.93 576.441 186.02 575.981 184.7C575.521 183.36 575.291 181.35 575.291 178.67V176.93C575.291 174.25 575.521 172.25 575.981 170.93C576.441 169.59 577.241 168.67 578.381 168.17C579.541 167.67 581.281 167.42 583.601 167.42H584.171C586.491 167.42 588.221 167.67 589.361 168.17C590.521 168.67 591.331 169.59 591.791 170.93C592.251 172.25 592.481 174.25 592.481 176.93V178.67C592.481 181.35 592.251 183.36 591.791 184.7C591.331 186.02 590.521 186.93 589.361 187.43C588.221 187.93 586.491 188.18 584.171 188.18H583.601ZM584.171 186.11C585.891 186.11 587.141 185.94 587.921 185.6C588.721 185.24 589.261 184.56 589.541 183.56C589.841 182.54 589.991 180.9 589.991 178.64V176.93C589.991 174.67 589.841 173.03 589.541 172.01C589.261 170.99 588.721 170.31 587.921 169.97C587.141 169.61 585.891 169.43 584.171 169.43H583.631C581.891 169.43 580.621 169.61 579.821 169.97C579.041 170.31 578.501 170.99 578.201 172.01C577.921 173.03 577.781 174.67 577.781 176.93V178.64C577.781 180.9 577.921 182.54 578.201 183.56C578.501 184.56 579.041 185.24 579.821 185.6C580.621 185.94 581.891 186.11 583.631 186.11H584.171Z" fill="white" style="fill:white;fill:white;fill-opacity:1;"/>
<path d="M501.668 188V167.6H505.538L512.678 185.51H512.768L519.818 167.6H523.628V188H521.288L521.348 169.7H521.258L513.938 188H511.418L504.038 169.7H503.948L504.008 188H501.668Z" fill="white" style="fill:white;fill:white;fill-opacity:1;"/>
<path d="M381.908 188V167.6H395.108V169.58H384.398V176.48H394.508V178.4H384.398V185.99H395.198V188H381.908Z" fill="white" style="fill:white;fill:white;fill-opacity:1;"/>
<path d="M307.804 188V167.6H311.674L318.814 185.51H318.904L325.954 167.6H329.764V188H327.424L327.484 169.7H327.394L320.074 188H317.554L310.174 169.7H310.084L310.144 188H307.804Z" fill="white" style="fill:white;fill:white;fill-opacity:1;"/>
<path d="M239.139 188L246.549 167.6H250.119L257.379 188H254.769L253.179 183.38H243.339L241.719 188H239.139ZM243.909 181.46H252.549L248.409 169.43H248.229L243.909 181.46Z" fill="white" style="fill:white;fill:white;fill-opacity:1;"/>
<path d="M181.164 188.18C178.884 188.18 177.174 187.93 176.034 187.43C174.914 186.91 174.134 185.99 173.694 184.67C173.254 183.33 173.034 181.32 173.034 178.64V176.9C173.034 174.2 173.264 172.19 173.724 170.87C174.204 169.53 175.004 168.62 176.124 168.14C177.264 167.66 178.954 167.42 181.194 167.42H181.734C183.754 167.42 185.294 167.6 186.354 167.96C187.434 168.3 188.194 168.88 188.634 169.7C189.074 170.5 189.294 171.64 189.294 173.12V173.6H186.894V173.18C186.894 172.14 186.754 171.36 186.474 170.84C186.214 170.32 185.714 169.96 184.974 169.76C184.254 169.54 183.164 169.43 181.704 169.43H181.254C179.554 169.43 178.314 169.6 177.534 169.94C176.774 170.28 176.244 170.96 175.944 171.98C175.664 173 175.524 174.65 175.524 176.93V178.64C175.524 180.86 175.674 182.49 175.974 183.53C176.274 184.55 176.814 185.24 177.594 185.6C178.374 185.94 179.594 186.11 181.254 186.11H181.704C183.224 186.11 184.354 186 185.094 185.78C185.834 185.54 186.344 185.11 186.624 184.49C186.924 183.87 187.074 182.9 187.074 181.58V179.75H180.714V177.89H189.474V181.31C189.474 183.17 189.254 184.58 188.814 185.54C188.374 186.5 187.604 187.18 186.504 187.58C185.404 187.98 183.804 188.18 181.704 188.18H181.164Z" fill="white" style="fill:white;fill:white;fill-opacity:1;"/>
<path d="M109.136 188V167.6H122.336V169.58H111.626V176.48H121.736V178.4H111.626V185.99H122.426V188H109.136Z" fill="white" style="fill:white;fill:white;fill-opacity:1;"/>
<path d="M37.09 188L31.66 167.6H34.15L38.74 185.96H38.83L43.63 167.6H46.54L51.34 185.96H51.43L55.96 167.6H58.42L53.02 188H49.81L45.1 169.88H45.04L40.27 188H37.09Z" fill="white" style="fill:white;fill:white;fill-opacity:1;"/>
</svg>
