<svg width="1677" height="1002" viewBox="0 0 1677 1002" fill="none" xmlns="http://www.w3.org/2000/svg">
<g clip-path="url(#clip0_5147_57560)">
<path d="M6.92975 0H0V6.93426H6.92975V0Z" fill="#FF4654" style="fill:#FF4654;fill:color(display-p3 1.0000 0.2745 0.3294);fill-opacity:1;"/>
<path d="M304.908 0H297.979V6.93426H304.908V0Z" fill="#FF4654" style="fill:#FF4654;fill:color(display-p3 1.0000 0.2745 0.3294);fill-opacity:1;"/>
<path d="M540.522 0H533.592V6.93426H540.522V0Z" fill="#FF4654" style="fill:#FF4654;fill:color(display-p3 1.0000 0.2745 0.3294);fill-opacity:1;"/>
<path d="M852.359 0H845.43V6.93426H852.359V0Z" fill="#FF4654" style="fill:#FF4654;fill:color(display-p3 1.0000 0.2745 0.3294);fill-opacity:1;"/>
<path d="M1677 995.065H1642.35V1002H1677V995.065Z" fill="#FF4654" style="fill:#FF4654;fill:color(display-p3 1.0000 0.2745 0.3294);fill-opacity:1;"/>
<path d="M1677 544.339H1670.07V551.273H1677V544.339Z" fill="#FF4654" style="fill:#FF4654;fill:color(display-p3 1.0000 0.2745 0.3294);fill-opacity:1;"/>
<path d="M51.9727 544.339H45.043V551.273H51.9727V544.339Z" fill="#FF4654" style="fill:#FF4654;fill:color(display-p3 1.0000 0.2745 0.3294);fill-opacity:1;"/>
<path d="M540.522 974.263H533.592V981.197H540.522V974.263Z" fill="#FF4654" style="fill:#FF4654;fill:color(display-p3 1.0000 0.2745 0.3294);fill-opacity:1;"/>
<path d="M540.522 995.065H533.592V1002H540.522V995.065Z" fill="#FF4654" style="fill:#FF4654;fill:color(display-p3 1.0000 0.2745 0.3294);fill-opacity:1;"/>
<path d="M852.359 974.263H845.43V981.197H852.359V974.263Z" fill="#FF4654" style="fill:#FF4654;fill:color(display-p3 1.0000 0.2745 0.3294);fill-opacity:1;"/>
<path d="M852.359 995.065H845.43V1002H852.359V995.065Z" fill="#FF4654" style="fill:#FF4654;fill:color(display-p3 1.0000 0.2745 0.3294);fill-opacity:1;"/>
<path d="M1167.66 974.263H1160.73V981.197H1167.66V974.263Z" fill="#FF4654" style="fill:#FF4654;fill:color(display-p3 1.0000 0.2745 0.3294);fill-opacity:1;"/>
<path d="M1167.66 995.065H1160.73V1002H1167.66V995.065Z" fill="#FF4654" style="fill:#FF4654;fill:color(display-p3 1.0000 0.2745 0.3294);fill-opacity:1;"/>
<path d="M304.908 974.263H297.979V981.197H304.908V974.263Z" fill="#FF4654" style="fill:#FF4654;fill:color(display-p3 1.0000 0.2745 0.3294);fill-opacity:1;"/>
<path d="M304.908 995.065H297.979V1002H304.908V995.065Z" fill="#FF4654" style="fill:#FF4654;fill:color(display-p3 1.0000 0.2745 0.3294);fill-opacity:1;"/>
<path d="M6.92975 974.263H0V981.197H6.92975V974.263Z" fill="#FF4654" style="fill:#FF4654;fill:color(display-p3 1.0000 0.2745 0.3294);fill-opacity:1;"/>
<path d="M6.92975 995.065H0V1002H6.92975V995.065Z" fill="#FF4654" style="fill:#FF4654;fill:color(display-p3 1.0000 0.2745 0.3294);fill-opacity:1;"/>
<path d="M10.3946 544.339H3.46484V551.273H10.3946V544.339Z" fill="#FF4654" style="fill:#FF4654;fill:color(display-p3 1.0000 0.2745 0.3294);fill-opacity:1;"/>
<path d="M1493.36 0H1486.43V6.93426H1493.36V0Z" fill="#FF4654" style="fill:#FF4654;fill:color(display-p3 1.0000 0.2745 0.3294);fill-opacity:1;"/>
</g>
<g clip-path="url(#clip1_5147_57560)">
<path d="M6.92975 0H0V6.93426H6.92975V0Z" fill="#FF4654" style="fill:#FF4654;fill:color(display-p3 1.0000 0.2745 0.3294);fill-opacity:1;"/>
<path d="M304.908 0H297.979V6.93426H304.908V0Z" fill="#FF4654" style="fill:#FF4654;fill:color(display-p3 1.0000 0.2745 0.3294);fill-opacity:1;"/>
<path d="M540.522 0H533.592V6.93426H540.522V0Z" fill="#FF4654" style="fill:#FF4654;fill:color(display-p3 1.0000 0.2745 0.3294);fill-opacity:1;"/>
<path d="M852.359 0H845.43V6.93426H852.359V0Z" fill="#FF4654" style="fill:#FF4654;fill:color(display-p3 1.0000 0.2745 0.3294);fill-opacity:1;"/>
<path d="M1677 995.065H1642.35V1002H1677V995.065Z" fill="#FF4654" style="fill:#FF4654;fill:color(display-p3 1.0000 0.2745 0.3294);fill-opacity:1;"/>
<path d="M1677 544.339H1670.07V551.273H1677V544.339Z" fill="#FF4654" style="fill:#FF4654;fill:color(display-p3 1.0000 0.2745 0.3294);fill-opacity:1;"/>
<path d="M51.9727 544.339H45.043V551.273H51.9727V544.339Z" fill="#FF4654" style="fill:#FF4654;fill:color(display-p3 1.0000 0.2745 0.3294);fill-opacity:1;"/>
<path d="M540.522 974.263H533.592V981.197H540.522V974.263Z" fill="#FF4654" style="fill:#FF4654;fill:color(display-p3 1.0000 0.2745 0.3294);fill-opacity:1;"/>
<path d="M540.522 995.065H533.592V1002H540.522V995.065Z" fill="#FF4654" style="fill:#FF4654;fill:color(display-p3 1.0000 0.2745 0.3294);fill-opacity:1;"/>
<path d="M852.359 974.263H845.43V981.197H852.359V974.263Z" fill="#FF4654" style="fill:#FF4654;fill:color(display-p3 1.0000 0.2745 0.3294);fill-opacity:1;"/>
<path d="M852.359 995.065H845.43V1002H852.359V995.065Z" fill="#FF4654" style="fill:#FF4654;fill:color(display-p3 1.0000 0.2745 0.3294);fill-opacity:1;"/>
<path d="M1167.66 974.263H1160.73V981.197H1167.66V974.263Z" fill="#FF4654" style="fill:#FF4654;fill:color(display-p3 1.0000 0.2745 0.3294);fill-opacity:1;"/>
<path d="M1167.66 995.065H1160.73V1002H1167.66V995.065Z" fill="#FF4654" style="fill:#FF4654;fill:color(display-p3 1.0000 0.2745 0.3294);fill-opacity:1;"/>
<path d="M304.908 974.263H297.979V981.197H304.908V974.263Z" fill="#FF4654" style="fill:#FF4654;fill:color(display-p3 1.0000 0.2745 0.3294);fill-opacity:1;"/>
<path d="M304.908 995.065H297.979V1002H304.908V995.065Z" fill="#FF4654" style="fill:#FF4654;fill:color(display-p3 1.0000 0.2745 0.3294);fill-opacity:1;"/>
<path d="M6.92975 974.263H0V981.197H6.92975V974.263Z" fill="#FF4654" style="fill:#FF4654;fill:color(display-p3 1.0000 0.2745 0.3294);fill-opacity:1;"/>
<path d="M6.92975 995.065H0V1002H6.92975V995.065Z" fill="#FF4654" style="fill:#FF4654;fill:color(display-p3 1.0000 0.2745 0.3294);fill-opacity:1;"/>
<path d="M10.3946 544.339H3.46484V551.273H10.3946V544.339Z" fill="#FF4654" style="fill:#FF4654;fill:color(display-p3 1.0000 0.2745 0.3294);fill-opacity:1;"/>
<path d="M1493.36 0H1486.43V6.93426H1493.36V0Z" fill="#FF4654" style="fill:#FF4654;fill:color(display-p3 1.0000 0.2745 0.3294);fill-opacity:1;"/>
</g>
<defs>
<clipPath id="clip0_5147_57560">
<rect width="1677" height="1002" fill="white" style="fill:white;fill:white;fill-opacity:1;"/>
</clipPath>
<clipPath id="clip1_5147_57560">
<rect width="1677" height="1002" fill="white" style="fill:white;fill:white;fill-opacity:1;"/>
</clipPath>
</defs>
</svg>
