<svg xmlns="http://www.w3.org/2000/svg" width="79.207" height="18" viewBox="0 0 79.207 18"><path d="M79.187,3.16H68.912L69.358.63H79.634ZM67.423,5.025A12.252,12.252,0,0,1,63.484,9.23H65.14L63.8,16.8a1.87,1.87,0,0,1-1.955,1.807H60.384l1.45-8.22-1.589.381.541-3.177A7.156,7.156,0,0,0,64.1,5.216a12.938,12.938,0,0,1-3.108,1.332l.528-3.1A9.176,9.176,0,0,0,65.1.611h3.1a14.52,14.52,0,0,1-3.785,4.414ZM52.1,7.975l-3.17,4.376h5.385q.532,0,.649-.761L54.6,9.345h3.1l.223,3.482a2.038,2.038,0,0,1-2.2,2.093H47.069q-2.185-.343-1.457-3.064l3.044-3.882h-2.74l.453-2.569H59.5l-.453,2.569Zm-4.65-4.491L47.9.915H59.394l-.453,2.569Zm-1.992.076a1.96,1.96,0,0,1-1.289.514A1.386,1.386,0,0,1,43.04,3.56a1.433,1.433,0,0,1-.3-1.217,2.013,2.013,0,0,1,.725-1.2A1.982,1.982,0,0,1,44.775.63a1.366,1.366,0,0,1,1.108.514,1.415,1.415,0,0,1,.3,1.2A2.038,2.038,0,0,1,45.457,3.56ZM45.4,7.118l-1.386,7.858a.929.929,0,0,0,.631,1.066H57.774l-.188,1.065a1.743,1.743,0,0,1-2.031,1.484H45.033a1.8,1.8,0,0,1-1.458-1.123q-.2,1.122-1.72,1.123H40.37L42.313,7.575H41.3l.44-2.493h2.169Q45.74,5.083,45.4,7.118ZM34.836,6.167l3.085-.019q2.1-.018,1.664,2.436L38.15,16.727a2,2,0,0,1-2.114,1.846l-2.851-.019.406-2.3.91.019a.933.933,0,0,0,1.03-.875l.245-1.389a64.225,64.225,0,0,1-7.5,4.091l.543-3.083a41.084,41.084,0,0,0,7.594-4.433l.228-1.294a35.251,35.251,0,0,1-7.622,4.377l.5-2.816q2.225-1.18,3.977-2.264H30.833Q29.11,7.347,30.958,5.5l4.476-2.074H30.867l.44-2.493H39.26q1.769.971.02,2.912ZM28.021,16.975H25.434l-.289,1.636H22.519l.289-1.636H20.182l.221-1.256.215-1.218L22.39,4.455q.374-2.341,2.239-2.341h.8l.265-1.5h2.626l-.265,1.5h.723q1.827,0,1.455,2.322ZM23.289,10.79h-.228L22.407,14.5h.837l.526-2.987Q23.9,10.791,23.289,10.79Zm1.09-6.184h-.228l-.614,3.482h.837l.473-2.683Q24.989,4.607,24.379,4.607Zm2.373,6.184h-.228L25.87,14.5l.8.019.537-3.044Q27.323,10.79,26.752,10.79Zm1.09-6.184h-.228L27,8.089h.8l.473-2.683Q28.413,4.607,27.843,4.607Zm-7.082-.628H14.653l-2.532,2.7h3.6q.952,0,.8-.762L16.3,4.892h2.968L20.046,9H17.1l-.376-1.1q-.46.989-2.32,1.18H9.111Q7.2,8.888,8.277,6.795l2.685-2.816H8.412l.436-2.474H13.32L13.474.63H16.9l-.154.875H21.2ZM9.108,18.592H5.949L7.81,9.877h3.063ZM6.47,3.713a2.024,2.024,0,0,1-1.3.495,1.446,1.446,0,0,1-1.14-.495,1.385,1.385,0,0,1-.309-1.218,1.929,1.929,0,0,1,.731-1.18A2.053,2.053,0,0,1,5.772.82a1.427,1.427,0,0,1,1.121.494,1.344,1.344,0,0,1,.315,1.18A1.974,1.974,0,0,1,6.47,3.713ZM5.433,13.207,3.49,18.4H.427l2.258-5.575q1.433-3.6-.526-4.243l.583-3.2Q7.783,6.681,5.433,13.207Zm9.626-3.33-1.537,8.715H10.535l1.537-8.715Zm1.313,0h2.987l-1.02,5.785q-.081.456.4.456h.057l-.436,2.474H16.662q-1.82-.038-1.512-1.788ZM71.51,8.6H67.286l.443-2.512H79.013L78.57,8.6H76.648l-1.436,8.144a2.4,2.4,0,0,1-.656,1.237,1.8,1.8,0,0,1-1.348.628H68.338l.4-2.378h2.911a.609.609,0,0,0,.509-.19.884.884,0,0,0,.236-.476l.879-4.985Q73.622,8.6,71.51,8.6Z" transform="translate(-0.427 -0.611)" fill="#3c3c3c" fill-rule="evenodd"/></svg>