<svg xmlns="http://www.w3.org/2000/svg" width="78.728" height="18" viewBox="0 0 78.728 18">
  <path id="路径_22682" data-name="路径 22682" d="M78.086,3.761,73.643,6.083l3.086-.02q2.1-.019,1.663,2.436l-1.436,8.143a2,2,0,0,1-2.114,1.846l-2.851-.02.406-2.3.91.019a.933.933,0,0,0,1.03-.875l.244-1.389a64.309,64.309,0,0,1-7.495,4.09l.543-3.083A41.1,41.1,0,0,0,75.224,10.5L75.452,9.2a35.273,35.273,0,0,1-7.622,4.377l.5-2.817Q70.551,9.584,72.3,8.5H69.64q-1.723-1.236.125-3.083L74.24,3.343H69.674L70.113.85h7.953Q79.837,1.82,78.086,3.761ZM66.828,16.89H64.241l-.289,1.636H61.326l.289-1.636H58.989l.221-1.256.215-1.218L61.2,4.37q.375-2.341,2.24-2.34h.8L64.5.526h2.626l-.265,1.5h.722q1.828,0,1.456,2.321Zm-4.96-6.184-.655,3.71h.838l.526-2.987q.128-.722-.481-.722Zm1.318-6.185h-.228L62.345,8h.837l.474-2.683Q63.8,4.522,63.187,4.522Zm2.373,6.185h-.228l-.654,3.71.8.02.537-3.045Q66.13,10.706,65.559,10.706ZM66.65,4.522h-.228L65.807,8h.8l.474-2.683Q67.22,4.522,66.65,4.522Zm-7.083-.628H53.459L50.928,6.6h3.6q.951,0,.8-.762l-.219-1.028h2.968l.778,4.11H55.9l-.376-1.1q-.46.99-2.32,1.18h-5.29q-1.906-.19-.834-2.283l2.685-2.817H47.218l.436-2.473h4.471L52.28.546h3.425l-.154.875H60ZM47.914,18.507H44.756l1.86-8.714h3.064ZM43.981,4.122a1.446,1.446,0,0,1-1.14-.494,1.386,1.386,0,0,1-.309-1.218,1.927,1.927,0,0,1,.731-1.179,2.049,2.049,0,0,1,1.315-.5,1.426,1.426,0,0,1,1.121.5,1.342,1.342,0,0,1,.315,1.179,1.974,1.974,0,0,1-.738,1.218A2.026,2.026,0,0,1,43.981,4.122Zm.259,9L42.3,18.317H39.233l2.257-5.575q1.434-3.6-.526-4.243l.582-3.2Q46.589,6.6,44.239,13.123ZM40.018,4.9H37.583l.184,13.091H34.551L34.5,4.9H32.674l-1.7,9.666h2.816l-.436,2.473H30.533l-.259,1.465H27.211q.258-1.465-1.815-1.465h-.99l.436-2.473h3.064L29.325,6.52Q29.61,4.9,28.126,4.9h-.59l-4.557,13.11-3.174-.019L24.472,4.9h-2.3l.466-2.645h7.44l.3-1.713h3.064l-.3,1.713h7.345ZM20.7,3.4H19.314L18.287,9.222h1.541l-.383,2.168H17.409A3.347,3.347,0,0,0,19.243,12l-.492,2.683-.677-.153-.12.685H11.332l-.171.97H18.6l-.2,1.161q-.2,1.16-1.651,1.16H.229l.409-2.322H8.1l.057-.323q.114-.648-1.35-.648H1.685L1.8,14.55l-.772.171.5-2.7a5.622,5.622,0,0,0,1.88-.628H1.484l.383-2.168H3.5l.839-4.758Q4.529,3.4,3.73,3.4H2.969l.359-2.036h1.56L5.033.546H8.115l-.144.818h8.62l.144-.818h3.083l-.144.818h1.389ZM8.627,13.18l.184-1.047h3.064L11.69,13.18h3.539a4.222,4.222,0,0,1-1.778-1.789H7.743A9.6,9.6,0,0,1,5.1,13.2ZM6.585,9.222H15.2l.044-.248q.1-.589-1.038-.59H6.733Zm.453-2.569h8.62l.037-.21q.1-.551-1.044-.552H7.173ZM15.051,3.4H7.611l-.134.761H16.1l.037-.21Q16.232,3.4,15.051,3.4ZM53.865,9.793l-1.537,8.714H49.341l1.537-8.714Zm1.313,0h2.987l-1.019,5.784q-.082.456.4.457H57.6l-.436,2.473H55.468q-1.821-.039-1.511-1.788Z" transform="translate(-0.229 -0.526)" fill="#3c3c3c" fill-rule="evenodd"/>
</svg>
