<svg xmlns="http://www.w3.org/2000/svg" width="78.345" height="18" viewBox="0 0 78.345 18">
  <path id="路径_22681" data-name="路径 22681" d="M78.039,3.073H67.775L68.221.546H78.484ZM66.287,4.936a12.243,12.243,0,0,1-3.934,4.2h1.654L62.673,16.7a1.868,1.868,0,0,1-1.953,1.805H59.257L60.7,10.3l-1.588.38L59.658,7.5a7.151,7.151,0,0,0,3.308-2.376,12.932,12.932,0,0,1-3.1,1.33l.527-3.1A9.165,9.165,0,0,0,63.966.526h3.1a14.516,14.516,0,0,1-3.781,4.41ZM50.98,7.882l-3.166,4.372h5.379q.532,0,.648-.761L53.474,9.25h3.1l.223,3.478A2.036,2.036,0,0,1,54.6,14.82H45.955q-2.182-.342-1.456-3.06l3.04-3.877H44.8l.453-2.566H58.369l-.453,2.566ZM46.334,3.4,46.787.831h11.48L57.814,3.4Zm-3.278.589a1.384,1.384,0,0,1-1.126-.513,1.432,1.432,0,0,1-.3-1.216,2.009,2.009,0,0,1,.724-1.2A1.977,1.977,0,0,1,43.663.546a1.364,1.364,0,0,1,1.107.513,1.413,1.413,0,0,1,.3,1.2,2.035,2.035,0,0,1-.728,1.216A1.957,1.957,0,0,1,43.056,3.986Zm1.231,3.041L42.9,14.877a.927.927,0,0,0,.63,1.064H56.648l-.188,1.065a1.74,1.74,0,0,1-2.029,1.483H43.921a1.793,1.793,0,0,1-1.457-1.122q-.2,1.121-1.718,1.122H39.264L41.2,7.483H40.2l.439-2.489H42.8Q44.627,4.993,44.288,7.026ZM39.215,3.986H32.145l-.2,1.122h6.614L38.2,7.14H31.589l-.208,1.179h7.146l-.359,2.034H31.022l-.231,1.311h7.146l-.4,2.243-6.352.019a9.117,9.117,0,0,0,6.04,1.749l-.493,2.794q-6.447-.3-8.324-3.022-3.306,2.793-9.545,3.041l.5-2.832a11.3,11.3,0,0,0,6.5-1.748H19.6l.4-2.243H27.18l.081-.456q.15-.854-1.066-.854H20.227l.359-2.034h7.184l.074-.418q.134-.76-1.044-.761h-5.55l.358-2.033h6.729l.067-.38q.131-.742-1.085-.741H21.349l.359-2.034h2.585L23.2.621h3.991a3.888,3.888,0,0,0,3.4,1.33A5.691,5.691,0,0,0,34.576.546h3.991l-1.73,1.406h2.737ZM19.421,5.43h-3.1l.137-.779q.1-.589-.866-.59H5.141L4.9,5.43H1.8l.265-1.5A2.551,2.551,0,0,1,4.855,1.591H9.739L9.923.546h3.1l-.184,1.045H17.8q2.177-.057,1.848,2.566Zm-17.187.78H18.618l-.409,2.319H1.826Zm15.992,6.424h-4.22l-.543,3.079c-.053.3.071.456.376.456h3.839l-.409,2.319H11.682q-1.8-.019-1.491-1.786l.553-3.136q.164-.931-.748-.932H7.374A10.942,10.942,0,0,1,.139,18.526l.548-3a6.625,6.625,0,0,0,3.322-2.889H.36L.8,10.163H18.663ZM70.37,8.509h-4.22L66.594,6H77.864l-.442,2.509H75.5l-1.434,8.135a2.4,2.4,0,0,1-.655,1.235,1.794,1.794,0,0,1-1.346.627H67.2l.4-2.375h2.908a.609.609,0,0,0,.509-.191.881.881,0,0,0,.235-.475l.878-4.98Q72.481,8.509,70.37,8.509Z" transform="translate(-0.139 -0.526)" fill="#3c3c3c" fill-rule="evenodd"/>
</svg>
