<svg xmlns="http://www.w3.org/2000/svg" width="78.634" height="18" viewBox="0 0 78.634 18">
  <path id="路径_22683" data-name="路径 22683" d="M78.677,3.122H75.53l-.593,1.41h1.7q1.659,0,1.363,1.679l-1.462,8.294H74.571l1.52,3.928h-3.07l-1-2.345a9.856,9.856,0,0,1-5.009,2.46l.5-2.822a7.261,7.261,0,0,0,2.414-1.221H67.784l1.442-8.179A1.882,1.882,0,0,1,71.22,4.533h.668l.63-1.41h-2.86L70.067.8h9.02Zm-7.4,3.89-1.316,7.464a4.88,4.88,0,0,0,.929-.944l.981-5.568h2.841l-1.123,6.369.8.02,1.132-6.426q.162-.916-.868-.915ZM69.039,3.923H66.255l-1.479,8.39H65.5l1.234-7h1.754l-1.342,7.608q-.33,1.869-1.873,1.868h-.935l-.144.821q-.082.457.568.458h2.307l-.219,1.239a1.311,1.311,0,0,1-1.4,1.24H62.59q-1.636-.019-1.324-1.792l.347-1.965h-.744q-1.813,0-1.489-1.831l1.349-7.646h1.754l-1.233,7h.8L63.2,5.791q.33-1.868-1.1-1.868h-1.45l.437-2.479h2.88l.158-.9H66.85l-.158.9h2.784Zm-10.6.953h-8.2l-.366,2.079h8.714l-.437,2.479H49.437L47.83,18.548H44.76l1.274-7.227q.333-1.888-1.688-1.888H40.151l.437-2.479H46.8L47.934.548H51L50.677,2.4h8.2ZM39.109,4.647H34.8l-.286,1.621q-.082.457.415.458h3.966L38.457,9.2H33.118q-2.208-.019-1.829-2.174L32.419.624h3.089l-.275,1.563h4.309Zm-9.964,1.03H23.024Q20.912,5.43,21.83,3.255L24.481.548h3.471l-2.725,2.8h2.135q1.011,0,.805-.458l-.295-1.03h2.9l.422,1.716Q31.422,5.524,29.145,5.677Zm-5.687.782H28.3q2.212,0,1.784,2.212l-1.5,8.485A1.536,1.536,0,0,1,26.92,18.51l-1.472.02.212-1.2q.233-1.106-.994-1.068H22.492l-.366,2.078H19.19L20.871,8.8A2.451,2.451,0,0,1,23.458,6.459Zm3.549,3.013q.142-.8-1.04-.8H23.83l-.312,1.773h3.318Zm-.823,4.671.138-.782q.141-.8-1.041-.8H23.145l-.279,1.583ZM18.977,3.1,16.656,16.26a2.506,2.506,0,0,1-2.749,2.288H10.171L10.6,16.2l1.91-.019a1.059,1.059,0,0,0,1.172-.915L15.548,4.7q.186-1.6-1.415-1.6H2.082L2.533.548,20.187.567l-.463,2.517ZM4.928,4.59H10.4q2.593,0,2.1,2.88l-1.336,7.684H.453l.219-1.24.212-1.2.934-5.3Q2.315,4.59,4.928,4.59Zm3.125,8.123H8.53l.084-.476L9.27,8.518q.255-1.449-1.29-1.449H4.929l-.995,5.644Zm22.711-2.707h3.089l-.262,1.487h4.385l-.436,2.479H33.155l-.282,1.6c-.054.3.084.458.415.458H37.33l-.218,1.24a1.313,1.313,0,0,1-1.4,1.239H31.477q-2.208-.019-1.831-2.154ZM53.6,11.321l1.8,5.987H52.282l-2.227-6.731H52.21Q53.357,10.559,53.6,11.321Z" transform="translate(-0.453 -0.548)" fill="#3c3c3c" fill-rule="evenodd"/>
</svg>
