<svg viewBox="0 0 186 286" fill="none" xmlns="http://www.w3.org/2000/svg">
<path d="M16.384 78.144H3.456L13.376 38.208H3.264L5.376 18.752H15.04L14.08 27.84H15.936L18.432 17.856H31.296L28.8 27.84H57.408V38.208H26.24L25.28 42.112H54.208V59.904L46.336 67.136L58.176 78.144H42.56L38.464 74.304L34.368 78.144H18.816L30.848 67.136L23.296 60.032V52.416H22.72L16.384 78.144ZM51.392 26.24H39.552V17.856H51.392V26.24ZM35.136 56.704L38.656 59.968L42.304 56.64V52.416H35.136V56.704ZM62.5405 30.144V19.84H82.8925V30.144H78.6045V41.6H82.8925V51.904H78.6045V64.128L82.8925 63.552V73.92L62.5405 76.672V66.24L66.7645 65.728V51.904H62.5405V41.6H66.7645V30.144H62.5405ZM96.2685 78.144H84.0445L95.9485 54.592V31.232H107.789V55.488L106.701 57.536H113.229V67.776H119.885V78.144H101.965V66.944L96.2685 78.144ZM118.989 56.192H110.029V29.376H93.7085V56.192H84.7485V19.008H118.989V56.192Z" fill="white"/>
<path d="M23.608 213.68H32.376V267.952H5.112V213.68H11.832L12.92 207.92H24.696L23.608 213.68ZM45.816 207.92V213.488H61.56V268.144H49.72V223.856H33.912V207.92H45.816ZM47.416 264.176H36.856L34.68 228.592H45.24L47.416 264.176ZM21.432 235.632V224.176H16.056V235.632H21.432ZM16.056 246.064V257.52H21.432V246.064H16.056ZM78.4685 224.432V214.128H83.1405V207.792H94.9805V214.128H99.6525V224.432H90.5005L90.2445 229.424H99.6525V268.016H91.1405V239.792H89.7965L88.4525 268.016H78.2125L80.3885 224.432H78.4685ZM100.805 251.44V241.072H107.973L109.445 234.8H101.893V224.432H122.629L118.725 241.072H122.885V251.44H117.829V268.08H105.925V251.44H100.805ZM122.885 211.824V222.192H100.805V207.792H112.645V211.824H122.885ZM65.4765 209.008V219.312H77.0605V209.008H65.4765ZM65.4765 257.776V268.08L77.0605 264.432V254.128L65.4765 257.776ZM65.4765 231.92V242.224H77.0605V231.92H65.4765ZM175.313 249.968L175.953 257.712H183.505V268.016H164.881L163.665 252.4L153.489 254.448V244.144L162.897 242.16L162.065 231.536H153.553V221.232H161.297L160.273 207.792H172.113L172.241 209.84H183.505V218.096H172.881L173.137 221.232H183.505V231.536H173.969L174.545 239.728L183.505 237.872V248.304L175.313 249.968ZM137.233 235.44L139.345 239.6L141.265 235.44V220.976H126.993V210.608H151.377V237.936L145.361 251.248L154.065 268.08H142.673L140.049 262.96L137.745 268.08H126.353L134.033 251.312L127.121 237.936V222.832H137.233V235.44Z" fill="white"/>
</svg>
