<svg xmlns="http://www.w3.org/2000/svg" xmlns:xlink="http://www.w3.org/1999/xlink" width="137.343" height="28.019" viewBox="0 0 137.343 28.019"><defs><linearGradient id="a" x1="0.5" x2="0.5" y2="1" gradientUnits="objectBoundingBox"><stop offset="0" stop-color="#fffcea"/><stop offset="1" stop-color="#ffe3be"/></linearGradient><linearGradient id="b" x1="0.5" x2="0.5" y2="1" gradientUnits="objectBoundingBox"><stop offset="0" stop-color="#ffdc6b"/><stop offset="0.223" stop-color="#ffcb21"/><stop offset="1" stop-color="#ff6f00"/></linearGradient></defs><g transform="translate(-48.33 -2911.001)"><g transform="translate(-4105.306 4259.162)"><path d="M27.814,28.02H21.426a2.18,2.18,0,0,1-2.457-2.431V20.856c0-2.059-.739-3.1-2.2-3.1H12.789c-1.176,4.082-2.837,8.494-6.233,10.266H3.724a6.415,6.415,0,0,1-2-.337A6.263,6.263,0,0,1,0,26.622a8.315,8.315,0,0,0,2.108.4l.119,0a3.376,3.376,0,0,0,1.511-.4H3.7l-.14,0a2.485,2.485,0,0,1-.8-.119,2.489,2.489,0,0,1-.807-.522h.014l.1,0a4.144,4.144,0,0,0,1.047-.122c.512-.145.673-.33,1.446-1.218a8.827,8.827,0,0,0,1.026-1.373c.174-.271.369-.572.658-1a19.178,19.178,0,0,0,2.516-4.519H3.4V14.184H14.03V12.27c0-1.922-.914-2.9-2.715-2.9H8.16a8.33,8.33,0,0,1-4.318,3.078L3.816,8.029A6.944,6.944,0,0,0,5.936,4.2H9.97l-.491,1.81H14.03v-2.4h4.19v2.4h9.387V9.374l-6.18-.207-1.817.207H18.22v4.811h9.594v3.569H23.185v6.284a.55.55,0,0,0,.621.621h4.008v3.361Zm69.8,0H93.378V24.786a1.862,1.862,0,0,0-.464-1.386,2.363,2.363,0,0,0-1.733-.553H83.525V19.873H89.99l1.629-1.319H88.568c-.117,0-.24.006-.368.006h-.006c-1.347,0-2.226-.3-2.615-.885a2.447,2.447,0,0,1,.118-2.3l2.974-1.913H94.7l-3.128,2.327h3.465l1.887-1.526h6.413L96.4,19.873h4.06c.608,0,.971-.111,1.079-.33.09-.184.005-.447-.252-.782l-.75-.9h4.81l1.6,2.508a1.484,1.484,0,0,1,.465,1.629c-.257.566-.954.853-2.069.853H97.619v5.171Zm-58.734,0h-4.06c-1.184-.172-1.837-1.1-1.939-2.767V22.3a1.72,1.72,0,0,0-1.913-1.966h-.957v-3.62h2.87V15.244c0-1-.574-1.5-1.706-1.5H30.4v-3.62h8.3v3.62H36.739v2.974h2.146v3.62H36.739v3.621c0,.5.2.75.594.75h1.552v3.309Zm84.338,0h-2.249V25.484a47.606,47.606,0,0,1-10.422,2.534l.026-3.724a56.175,56.175,0,0,0,10.4-2.534l.025-1.5A47.133,47.133,0,0,1,110.525,22.9l-.025-3.621a33.937,33.937,0,0,0,7.68-1.706h-4.085l.025-.621c-1.159.381-2.516.781-4.034,1.19V14.313a11.061,11.061,0,0,0,3.724-1.4h-2.38V11.055h-1.578V8.572a3.959,3.959,0,0,1,.817-2.716,3.155,3.155,0,0,1,2.453-.905h6.5l.026-1.345h4.5l.025,1.345h6.413a3.713,3.713,0,0,1,2.747.9,3.354,3.354,0,0,1,.8,2.51v2.689h-1.448v1.862H120.275a8.278,8.278,0,0,1-1.992,1.241h3.543a3.42,3.42,0,0,1,2.54.853,3.423,3.423,0,0,1,.8,2.561v7.706c.138,1.613-.515,2.535-1.94,2.741Zm-9.076-19.86h0V9.865h15.723V9.131l-.126-.972Zm-6.985,19.86h-4.5l-2.017-4.086h3.414a1.931,1.931,0,0,1,1.732.879l1.37,3.2Zm-46.654,0H57.352V24.967h.828a1.115,1.115,0,0,0,.879-.31,22.84,22.84,0,0,0,.165-4.391l-.01-1.48-2.586.75V15.58l2.586-.776V11.727c.068-1.424-.454-2.181-1.552-2.25h-.931V6.116h2.482V3.607h3.672V6.116h1.552V9.477H62.886v4.06l1.552-.543v3.956l-1.552.569V25.51a3.085,3.085,0,0,1-.62,1.655A2.24,2.24,0,0,1,60.507,28.019Zm-11.537,0H44.626v-.337a.744.744,0,0,0-.491-.842,5.6,5.6,0,0,0-1.778-.221c-.147,0-.243,0-.253,0H39.79V24.036h4.836v-.311c0-.532-.522-.8-1.552-.8H39.945V20.209h4.681V19.9c0-.567-.539-.854-1.6-.854H39.867V16.278h4.758v-.827H48.97v.827h5.069v2.767H48.97v1.164h5.017v2.715H48.97v1.112h5.2v2.586h-5.2v1.4Zm22.089-.207h0v-6.93a2.178,2.178,0,0,0-2.483-2.431H65.006V15.089h1.607a6.886,6.886,0,0,0,8.27,3.626l-.049,9.071Zm13.269-.051h0l1.267-3.828h4.37l-1.111,3.8Zm-19.424,0h0l.828-8.3h3.723l-.724,8.276Zm69.361-.1h-4.241l-3.983-10.138a2.759,2.759,0,0,1,.22-2.367,2.27,2.27,0,0,1,1.876-.684h5.146l.077.155v3.414h-2.948l2.948,7.241a2.165,2.165,0,0,0,.789.4.849.849,0,0,0,.216.027,1.275,1.275,0,0,0,.67-.223.177.177,0,0,1-.031.031,7.313,7.313,0,0,1-.74.6,1.247,1.247,0,0,1-.523.231l.007,0a3.143,3.143,0,0,0,.862.117,2.952,2.952,0,0,0,.844-.119,6.826,6.826,0,0,0,1.888-1.073.173.173,0,0,1-.018.024,11.947,11.947,0,0,1-1.555,1.551,5.1,5.1,0,0,1-1.5.8h0Zm-53.328,0H77.264l-1.19-8.249H78.35c.892.137,1.4.572,1.5,1.292l1.086,6.956Zm-.052-9.206h-1.05l1.05-1.252V18.45Zm-2.983,0H75.587a6.9,6.9,0,0,0,1.364-.8l.947.795ZM80.884,16.8h0L78.99,15.208q.03-.059.058-.119h1.836V16.8Zm-36.633-1.8a7.282,7.282,0,0,1-1.332-.112,5.362,5.362,0,0,1-2.664-1.318A3.153,3.153,0,0,1,40.643,9.3a5.66,5.66,0,0,1,3.5-1.188,8.256,8.256,0,0,1,2.805.542l1.474.879,1.422-2.224H43.618A12.275,12.275,0,0,1,39.971,8.52V5.366a6.768,6.768,0,0,0,2.586-1.552h4.112l-.439.75h5.715a2.479,2.479,0,0,1,1.849.833,2.8,2.8,0,0,1,.323,2.244L51.22,11.8l3.233,3.155H49.41L48.4,14l-1.578.724A14.355,14.355,0,0,1,44.251,14.993Zm.142-4.2a2.077,2.077,0,0,0-1.048.246.7.7,0,0,0-.427.581c0,.206.144.394.427.556a2.077,2.077,0,0,0,1.048.246,4.859,4.859,0,0,0,1.913-.828A3.561,3.561,0,0,0,44.393,10.8Zm21.218,3.362c-.212,0-.45-.009-.708-.027V10.8h.074a5.289,5.289,0,0,0,1.135-.109,6.961,6.961,0,0,0-.156,1.464,6.873,6.873,0,0,0,.287,1.973A5.158,5.158,0,0,1,65.611,14.159Zm14.57-.153c-.249,0-.5-.007-.725-.019a6.856,6.856,0,0,0,.248-1.835,6.948,6.948,0,0,0-.151-1.44,4.606,4.606,0,0,0,.917.085V14h-.29Zm7.275-.131H83.241V12.037A2.6,2.6,0,0,1,84,10a3.354,3.354,0,0,1,2.284-.679H93.4v-.44c0-.617-.5-.931-1.474-.931h-8.3V4.874H93.4V3.607h4.215V4.874h4.1a14.968,14.968,0,0,0,3.36-.976c1.03-.544,1.064-1.271,1.065-1.352a2.123,2.123,0,0,1-.357,1.352,3.934,3.934,0,0,1-1.4.976l.006,0A7.686,7.686,0,0,0,107.368,3.4a5.457,5.457,0,0,0,1.4-2.634h0s0,0,0,.021a9.619,9.619,0,0,1-.32,2.613,2.97,2.97,0,0,1-1.078,1.477V7.952h-9.75V9.322h7.034a3.123,3.123,0,0,1,2.295.756,2.9,2.9,0,0,1,.7,2.14v1.654h-4.189v-.7c0-.463-.4-.7-1.19-.7H87.456v1.4Zm-48.7-4.708H32.369A2.163,2.163,0,0,1,30.2,6.736V3.814h-.1A2.97,2.97,0,0,1,29.175,2.2,5.386,5.386,0,0,1,29.49,0,3.087,3.087,0,0,0,30.2,2.2a8.54,8.54,0,0,0,2.167,1.608l0,0a2.6,2.6,0,0,1-.631-.974,2.477,2.477,0,0,1,0-1.154,1.584,1.584,0,0,0,.455,1.154,5.9,5.9,0,0,0,1.634.982V5.831h4.939V9.166Zm27.97-.18H64.9V6.762c0-1.8,1.1-2.723,3.259-2.74h9.413c1.922,0,2.9.957,2.9,2.844V8.985H78.934a6.877,6.877,0,0,0-12.208,0Z" transform="translate(4153.636 -1348.162)" fill="url(#a)"/><g transform="translate(4220.943 -1341.534)"><path d="M9.255,9.593a5.513,5.513,0,1,1,.951-1.143l2.053,1.723L11.3,11.311ZM1.578,5.523A3.944,3.944,0,1,0,5.522,1.579,3.949,3.949,0,0,0,1.578,5.523Z" transform="translate(0 0)" fill="url(#b)"/><path d="M2.152,5.408V3.256H0v-1.1H2.152V0h1.1V2.151H5.408v1.1H3.256V5.408Z" transform="translate(2.863 2.864)" opacity="0.4" fill="url(#b)"/></g></g></g></svg>