<svg xmlns="http://www.w3.org/2000/svg" xmlns:xlink="http://www.w3.org/1999/xlink" width="24" height="24" viewBox="0 0 24 24">
  <defs>
    <clipPath id="clip-path">
      <rect id="矩形_30824" data-name="矩形 30824" width="24" height="24" transform="translate(549 2141)" fill="#aa3636" opacity="0.432"/>
    </clipPath>
  </defs>
  <g id="蒙版组_736" data-name="蒙版组 736" transform="translate(-549 -2141)" clip-path="url(#clip-path)">
    <path id="联合_8744" data-name="联合 8744" d="M7.6,20.295l6.164-9.683h-2.2l-.807,2.157L6.91,9.123l6.431-3.26-.909,2.43H15.1c1.386,0,2,.875,1.254,2.421s-6.28,10.024-6.28,10.024l-.919,1.186Zm-3-4.788H1.942c-1.386,0-2-.876-1.254-2.421S7.854,1.6,7.854,1.6l1.58,1.9L3.269,13.189h2.2l.807-2.157,3.85,3.646L3.7,17.937Z" transform="translate(552.631 2141.398)" fill="#ff7f1c"/>
  </g>
</svg>
