<svg xmlns="http://www.w3.org/2000/svg" xmlns:xlink="http://www.w3.org/1999/xlink" width="24" height="24" viewBox="0 0 24 24"><defs><clipPath id="a"><rect width="24" height="24" transform="translate(552 523)" fill="#aa3636" opacity="0.432"/></clipPath></defs><g transform="translate(-552 -523)" clip-path="url(#a)"><g transform="translate(2.721 -1536)"><path d="M3931.854,8251h-6a4,4,0,0,1-4-4v-4.053l2,.909V8247a2,2,0,0,0,2,2h6a2,2,0,0,0,2-2v-12a2,2,0,0,0-2-2h-6a2,2,0,0,0-2,2v.01l-1.907-.871a4.007,4.007,0,0,1,3.907-3.14h6a4.005,4.005,0,0,1,4,4v12A4,4,0,0,1,3931.854,8251Z" transform="translate(-3366.854 -6170)" fill="#ff7f1c"/><path d="M-5215.059-4618.073h4.8" transform="translate(5774.665 6694)" fill="none" stroke="#ff7f1c" stroke-linecap="round" stroke-width="2"/><path d="M193.558,84.407a5.489,5.489,0,0,0,4.709,4.873c-1.523-.592-1.642-3.6-1.622-4.873H198.1s.371.022.462-.12-.1-.447-.1-.447l-2.519-3.331s-.337-.632-.69-.632-.719.632-.719.632l-2.979,3.9Z" transform="translate(365.957 2164.188) rotate(-50)" fill="#ff7f1c"/></g></g></svg>