<svg xmlns="http://www.w3.org/2000/svg" xmlns:xlink="http://www.w3.org/1999/xlink" width="28" height="28" viewBox="0 0 28 28">
  <defs>
    <clipPath id="clip-path">
      <rect class="cls-1" width="28" height="28" viewBox="0 0 28 28" transform="translate(548.781 2140.781)"/>
    </clipPath>
  </defs>
  <g id="蒙版组_739" data-name="蒙版组 739" class="cls-2" transform="translate(-548.781 -2140.781)">
    <path id="联合_8767" data-name="联合 8767" class="cls-3" d="M8.273,21.375,15.322,10.3H12.8l-.923,2.467L7.48,8.6l7.354-3.727L13.795,7.652h3.045c1.585,0,2.285,1,1.434,2.768s-7.181,11.463-7.181,11.463l-1.051,1.357ZM4.843,15.9H1.8c-1.585,0-2.285-1-1.434-2.768S8.559,0,8.559,0l1.806,2.177L3.316,13.249H5.834l.923-2.467,4.4,4.169L3.8,18.678Z" transform="translate(553.633 2143.347)"/>
  </g>
</svg>
