<svg xmlns="http://www.w3.org/2000/svg" width="29.716" height="17.123" viewBox="0 0 29.716 17.123">
  <path id="联合_8277" data-name="联合 8277" d="M8352.231,11656.291l-2.5-1.875a.5.5,0,0,1,.3-.9h.9a5.2,5.2,0,0,0-2.854-3.385,5.551,5.551,0,0,1-1.882,1.732,8.775,8.775,0,0,1-2.665.535q-2.131-.083-2.677-1.363a2.841,2.841,0,0,1,.6-2.5,4.744,4.744,0,0,1,4.106-1.153l1.048.138.091-.529h-4.974l.155-.9.155-.892.614-3.52a1.736,1.736,0,0,1,1.972-1.545h3.329l.149-.862h2.226l-.149.862h3.353q1.625,0,1.357,1.519l-.7,4.034-.228,1.3H8349l-.22,1.1a7.419,7.419,0,0,1,4.708,5.43h1.538a.5.5,0,0,1,.3.9l-2.5,1.875a.5.5,0,0,1-.3.1A.49.49,0,0,1,8352.231,11656.291Zm-9.036-6.881a.668.668,0,0,0-.412.475.493.493,0,0,0,.254.506,1.973,1.973,0,0,0,.986.257,4.063,4.063,0,0,0,1.035-.257,3.225,3.225,0,0,0,1.054-1.007c-.478-.1-.822-.172-1.036-.21a7.988,7.988,0,0,0-.919-.085A4.383,4.383,0,0,0,8343.2,11649.41Zm6.094-4.215h2.776l.33-1.893q.242-1.374-.887-1.375h-1.649Zm-5.059,0h2.832l.331-1.9q.24-1.365-.916-1.363H8344.8Zm21.949,7.205-.023-7.287h-3.188l-.45,2.586c-.041.223.056.333.283.333h2.145l-.318,1.823h-3.408c-.869-.009-1.226-.451-1.074-1.322l1.237-7.106a2.222,2.222,0,0,1,2.4-2.114h6.7l-.088.5c-.193,1.059-.723,1.585-1.583,1.585h-.289l-.009,1.879h1.482l-.318,1.837h-1.308l.038,7.287Zm-2.893-9.124h2.983l.023-1.879h-2.68Zm-3.719,9.124.316-1.822h5.318l-.111.641a1.234,1.234,0,0,1-1.3,1.182Zm-3.288,0,1.272-7.287-.9.333.45-2.671a6.593,6.593,0,0,0,2.357-3.507h2.063a11.291,11.291,0,0,1-2.966,5.037l1.357.015-1.194,6.857q-.214,1.223-1.7,1.223Z" transform="translate(-8340.765 -11639.269)" fill="#fff"/>
</svg>
