<svg xmlns="http://www.w3.org/2000/svg" xmlns:xlink="http://www.w3.org/1999/xlink" width="78.336" height="22.314" viewBox="0 0 78.336 22.314">
  <defs>
    <linearGradient id="linear-gradient" x1="0.5" x2="0.5" y2="1" gradientUnits="objectBoundingBox">
      <stop offset="0" stop-color="#ffc107"/>
      <stop offset="1" stop-color="#f69c00"/>
    </linearGradient>
    <filter id="联合_8715" x="0" y="0" width="78.336" height="22.314" filterUnits="userSpaceOnUse">
      <feOffset input="SourceAlpha"/>
      <feGaussianBlur stdDeviation="1.5" result="blur"/>
      <feFlood flood-opacity="0.161"/>
      <feComposite operator="in" in2="blur"/>
      <feComposite in="SourceGraphic"/>
    </filter>
  </defs>
  <g transform="matrix(1, 0, 0, 1, 0, 0)" filter="url(#联合_8715)">
    <path id="联合_8715-2" data-name="联合 8715" d="M2453.989,6707.315l-.013-1.639h1.961a.478.478,0,0,0,.364-.125.49.49,0,0,0,.1-.323v-.274c0-.613-.456-1.012-1.288-1.012h-3.759v-1.727h5.006l.04-.443a1.193,1.193,0,0,0-1.225-1.345H2452.2v-1.744h4.178l1.406-1.884s-1.8-.025-2.565-.025h-4.181l-.032-1.525h12.6v-.744c.116-.5.4-.663.762-.328l1.87,1.784c.342.312.312.578-.074.825.017.008-.407.01-.916.01v0h-6.679l.017,1.884h4v1.744h-4l-.01,1.788h4.7v1.727h-4.7l.04,2.156a1.306,1.306,0,0,1-.325.82,1.393,1.393,0,0,1-1.064.4Zm16.3-.034-.017-6.844-.959-.01-.192,6.8-1.643,0,.216-10.183h-1.1l.6-1.547h1.021l.008-.022.328-.932,1.7-.015-.349.969h2.6l.34-.954h1.991l-.322.912-.037.042h5.831v-.985h2.049v.985h1.5l-.789,1.548h-.712v10.223H2480.3l-.017-8.75c0-.882-.344-1.377-1.025-1.475h-9.9v1.616h.892c1.037,0,1.582.593,1.618,1.762v5.85c-.01.664-.37,1-1.074,1l-.5,0Zm-6.166-.008.86-4.3c.244-1.547-.037-2.508-.835-2.858l-.015-2.276c2.336.519,3.158,2.407,2.587,5.942l-.643,3.495h-1.954Zm8.711-.015v-1.619h.752c.224,0,.337-.108.337-.32v-1.677H2472.4v-1.71h1.518v-.877l.68-1.24h-2.091v-1.768h3.454a1.326,1.326,0,0,1,.97.519,1.648,1.648,0,0,1,.089,1.333l-.959,1.495v.539h1.2v1.71h-1.2v2.335a1.17,1.17,0,0,1-1.338,1.281Zm11.265-.015v-1.495h.03a3,3,0,0,0,2.267-.833H2483.9v-.961h2.742v-.737h-2.256v-4.06c0-.919.431-1.389,1.281-1.389h4.067c.959,0,1.451.453,1.463,1.348v2.832l-.017,1.269h-2.432v.737h2.771v.961h-3.149l-.18.414h1.643a.323.323,0,0,1,.052,0,.956.956,0,0,1,.586.178l1.059,1.67h-2.25l-.488-.736a.457.457,0,0,0-.421-.342h-.611a4.606,4.606,0,0,1-3.259,1.155C2484.345,6707.251,2484.219,6707.25,2484.1,6707.243Zm2.3-5.363h2.794v-.566c0-.266-.249-.394-.763-.394h-2.032Zm0-2.185h2.794v-.175c0-.279-.256-.421-.763-.421h-2.032Zm27.82,7.535-.014-2.956c.019-.958.384-1.077,1.276-1.436a2.575,2.575,0,0,1,.892-.159,8.2,8.2,0,0,1-2.719-1.4,9.244,9.244,0,0,1-2.429,1.407,2.031,2.031,0,0,1,.505.147c.843.359,1.256.478,1.274,1.436l-.013,2.956h-5.546v-3.091a1.455,1.455,0,0,1,.3-1.02h-.86v-1.565l.014,0a8.28,8.28,0,0,0,3.69-.616h-2.84a.8.8,0,0,1-.864-.779c0-.8.9-.815.907-.815h4.605v-.565h-5.077v-2.8a1.393,1.393,0,0,1,.344-1.036,1.635,1.635,0,0,1,1.2-.39h9.049a1.562,1.562,0,0,1,1.34.523,13.721,13.721,0,0,1-1.762,1.229c-.073-.2-.264-.3-.569-.3h-7.617v1.328h7.021l-1.385,1.451h-.3v.565h1.81a2.963,2.963,0,0,0,1.167,1.593h-1.14a9.869,9.869,0,0,0,3.552.564v1.535h-.7q.4.166.435,1.1v3.091Zm1.981-2.168v.6h1.572v-1.248h-.909A.581.581,0,0,0,2516.2,6705.061Zm-6.762.6h1.574v-.6a.582.582,0,0,0-.665-.651h-.909Zm-16.04,1.572v-1.6h.38a.517.517,0,0,0,.419-.164,17.918,17.918,0,0,0,.069-3.077l-1.207.392v-2.074l1.207-.407v-1.478c.027-.84-.258-1.279-.855-1.314h-.311v-1.763h1.167v-1.316h1.966v1.316h.475v1.763h-.475v2.129l.475-.286v2.075l-.475.3v4.19a1.633,1.633,0,0,1-.286.869,1.233,1.233,0,0,1-1.071.446Zm4.2-.122a1.158,1.158,0,0,1-.623-1.14v-11.43h2.047v10.142c.009.279.163.343.461.19l.99-.732v2.2l-.99.542a3.242,3.242,0,0,1-1.312.351A1.311,1.311,0,0,1,2497.6,6707.108Zm3.065.081,1.939-12.7h2.1l-.636,3.7h.746l1.044,8.935h-1.736l-.732-5.016-.529,4.405q-.068.679-.869.678Zm-22.2-.523v-8.444l.358-.008c.552.078.818.576.793,1.481v5.944a.888.888,0,0,1-.685,1l-.465.03Zm4.506-2.7c-.015-.074-.032-.153-.052-.241a10.607,10.607,0,0,1,0-3.894c.017-.076.032-.146.045-.21l.007-.029c.079-.382.12-.576.254-.576s.189.208.273.625c.012.059.025.121.039.19a9.119,9.119,0,0,1,.177,1.936,9.223,9.223,0,0,1-.177,1.958l-.037.177,0,.017c-.084.407-.126.613-.271.613S2483.044,6704.346,2482.965,6703.97Zm34.1-5.272h-1.3l1.939-1.927s.239-.312.468-.312.449.312.449.312l1.639,1.648s.123.15.062.22-.3.059-.3.059h-.949c-.012.628.064,2.116,1.057,2.409C2520.128,6701.107,2517.359,6700.858,2517.061,6698.7Zm-17.348,2.241-.338-6.4h1.463l.407,6.414Zm-14.724-3.587c0-.333-.249-.5-.783-.528v-1.643h.783v-.633h2.084v.633h1.562v-.633h2.089v.633h.845v1.643h-.845v.527h-2.089a.42.42,0,0,0-.121-.3,1.254,1.254,0,0,0-.87-.225h-.571v.528h-2.084Z" transform="translate(-2446.5 -6689.5)" fill="url(#linear-gradient)"/>
  </g>
</svg>
