<svg xmlns="http://www.w3.org/2000/svg" width="16" height="16" viewBox="0 0 16 16"><g transform="translate(-1089 -407.583)"><g transform="translate(1089 405.583)"><path d="M8,16.025A8,8,0,0,1,.353,10.37h2a6.117,6.117,0,1,0,7.058-8.3V.133A8.009,8.009,0,0,1,8,16.025ZM9.412,8.5h.009v1.879H4.7V8.5H7.529V3.772H9.412ZM7.529,1.934a6.1,6.1,0,0,0-5.647,6.08c0,.161.035.313.047.471H.024C.014,8.327,0,8.173,0,8.013A8,8,0,0,1,7.529.025Z" transform="translate(0 1.975)" fill="#fff" fill-rule="evenodd"/></g></g></svg>