<svg width="24" height="24" viewBox="0 0 24 24" fill="none" xmlns="http://www.w3.org/2000/svg">
<path d="M6.91021 16.7532L7.53744 15.9743L6.91021 16.7532C8.6241 18.1335 10.3564 19.2609 11.4754 19.9465L11.9977 20.2665L12.5201 19.9466C13.6397 19.2609 15.3729 18.1333 17.0876 16.753C18.7223 15.437 20.0415 14.1288 20.9616 12.9032C21.8594 11.7072 22.4737 10.4622 22.4737 9.29559C22.4737 7.70495 21.9944 6.1932 21.0501 5.07364C20.4781 4.39547 19.4129 3.49993 17.8048 3.49999C16.1739 3.50005 14.543 4.41503 13.0773 5.85683L11.9964 6.92013L10.9166 5.85572L10.2371 6.54507L10.9166 5.85572C9.45487 4.41476 7.82682 3.49999 6.1971 3.49999C4.58927 3.49999 3.52356 4.39607 2.95125 5.07416C2.00623 6.19387 1.52632 7.70534 1.52632 9.29559C1.52632 10.4622 2.1403 11.7071 3.03776 12.9032C3.95743 14.1289 5.27615 15.4372 6.91021 16.7532ZM11.2955 5.50887L11.9968 6.20017L12.6988 5.5096C15.448 2.80519 18.0073 2.59291 19.791 3.44922C21.6408 4.33726 23 6.5262 23 9.29559C23 10.5198 22.3961 11.8708 21.3286 13.2748C20.2721 14.6642 18.8406 16.0016 17.3732 17.1782C15.9111 18.3505 14.4439 19.339 13.3395 20.0356C12.7882 20.3832 12.3297 20.6567 12.0104 20.8425C12.0061 20.845 12.0019 20.8474 11.9976 20.8499C11.9935 20.8475 11.9893 20.845 11.9851 20.8426C11.6659 20.6568 11.2075 20.3833 10.6565 20.0357C9.55256 19.3391 8.086 18.3506 6.62448 17.1783C5.15767 16.0017 3.7268 14.6644 2.67076 13.2749C1.60372 11.871 1 10.52 1 9.29559C1 5.59898 3.37605 3 6.19711 3C7.66489 3 9.43783 3.67762 11.2955 5.50887Z" stroke="white" stroke-width="2"/>
</svg>
