<svg viewBox="0 0 130 82" fill="none" xmlns="http://www.w3.org/2000/svg">
<path d="M0 61.9053L18.1215 50.7441L23.056 47.7057L27.1185 51.9155L35.184 60.2603L63.2288 41.7687L68.9163 38.0151L73.0383 43.4985L76.3046 47.8478L104.547 16.7194L97.3511 9.42151L113.677 4.71076L130 0L125.78 16.9936L121.558 33.9872L115.099 27.4321L81.1363 64.8564L75.2158 71.3817L69.9238 64.3105L65.4713 58.3909L38.0927 76.4464L33.0742 79.7638L28.8925 75.4369L20.7106 66.9625L0 82L0 61.9053Z" fill="#FF6225"/>
<path d="M0 61.9053L18.1215 50.7441L23.056 47.7057L27.1185 51.9155L35.184 60.2603L63.2288 41.7687L68.9163 38.0151L73.0383 43.4985L76.3046 47.8478L104.547 16.7194L97.3511 9.42151L113.677 4.71076L130 0L125.78 16.9936L121.558 33.9872L115.099 27.4321L81.1363 64.8564L75.2158 71.3817L69.9238 64.3105L65.4713 58.3909L38.0927 76.4464L33.0742 79.7638L28.8925 75.4369L20.7106 66.9625L0 82L0 61.9053Z" fill="url(#paint0_linear_2_12083)"/>
<defs>
<linearGradient id="paint0_linear_2_12083" x1="112" y1="-7.99999" x2="24" y2="82" gradientUnits="userSpaceOnUse">
<stop stop-color="#FF973A"/>
<stop offset="0.352391" stop-color="#FF8939"/>
<stop offset="1" stop-color="#FF5A21"/>
</linearGradient>
</defs>
</svg>
