<svg width="24" height="24" viewBox="0 0 24 24" fill="none" xmlns="http://www.w3.org/2000/svg">
<path fill-rule="evenodd" clip-rule="evenodd" d="M12 22.0029H3V11.0029H1V4.00293H7.0498L7.0504 4H5V2H9.5H10V2.05054C10.3946 2.13113 10.7664 2.30645 11.082 2.56445C11.5285 2.9294 11.8354 3.43779 11.9502 4.00293H12.0498C12.1646 3.43779 12.4715 2.9294 12.918 2.56445C13.2336 2.30645 13.6054 2.13113 14 2.05054V2H14.5H19V4H16.9496C16.9498 4.00098 16.95 4.00195 16.9502 4.00293H23V11.0029H21V22.0029H12ZM19 20.0029V11.0029H13V20.0029H19ZM5 20.0029H11V11.0029H5V20.0029ZM21 9.00293V6.00293H13V9.00293H21ZM11 9.00293V6.00293H3V9.00293H11Z" fill="white"/>
</svg>
