<svg xmlns="http://www.w3.org/2000/svg" width="21.113" height="18.969" viewBox="0 0 21.113 18.969">
  <path id="联合_7968" data-name="联合 7968" d="M-4395,473.969a2,2,0,0,1-1.736-2.992l8.554-14.97a1.98,1.98,0,0,1,1.736-1.008,1.982,1.982,0,0,1,1.736,1.008l8.554,14.97a2,2,0,0,1-1.737,2.992Zm0-2h17.107L-4386.443,457Zm7.555-2a1,1,0,0,1,1-1,1,1,0,0,1,1,1,1,1,0,0,1-1,1A1,1,0,0,1-4387.443,469.969Zm0-3v-5a1,1,0,0,1,1-1,1,1,0,0,1,1,1v5a1,1,0,0,1-1,1A1,1,0,0,1-4387.443,466.968Z" transform="translate(4397 -455)" fill="#212121"/>
</svg>
