<svg xmlns="http://www.w3.org/2000/svg" width="20.573" height="15.814" viewBox="0 0 20.573 15.814">
  <path id="联合_8331" data-name="联合 8331" d="M14.684,15.812a1,1,0,0,1-.994-.639l-2.026-2.026a1,1,0,0,1,1.414-1.414l1.606,1.606,4.182-4.182a1,1,0,0,1,1.414,1.415l-4.6,4.6a.983.983,0,0,1-.227.347,1,1,0,0,1-.707.293Zm-12.9-.351A1.8,1.8,0,0,1,0,13.642V5.457A3.607,3.607,0,0,1,3.568,1.819H8.026V.909a.892.892,0,1,1,1.784,0v.91h4.46a3.607,3.607,0,0,1,3.568,3.638V7.73H16.053V5.457A1.8,1.8,0,0,0,14.27,3.638H3.568A1.8,1.8,0,0,0,1.784,5.457v8.186h.627a1.752,1.752,0,0,0,1.021-.328c2.3-1.638,4.043-2.4,5.486-2.4a4.43,4.43,0,0,1,.517.031v1.838a2.856,2.856,0,0,0-.517-.05c-1.03,0-2.533.7-4.464,2.074a3.506,3.506,0,0,1-2.042.655ZM5.459,9.549V8.64H4.568a.91.91,0,0,1,0-1.819h.892v-.91a.892.892,0,1,1,1.784,0v.91h.892a.91.91,0,0,1,0,1.819H7.243v.909a.892.892,0,1,1-1.784,0Z" fill="#fff"/>
</svg>
