<svg width="20" height="20" viewBox="0 0 20 20" fill="none" xmlns="http://www.w3.org/2000/svg">
<g opacity="0.8">
<path fill-rule="evenodd" clip-rule="evenodd" d="M20 4H0V16H20V4ZM6.00024 6.99999H8.00024V8.99999H10.0001V11H8.00024V13H6.00024V11H4.00014V8.99999H6.00024V6.99999ZM16.0001 8.99999C16.5524 8.99999 17.0001 8.55227 17.0001 7.99999C17.0001 7.4477 16.5524 6.99999 16.0001 6.99999C15.4479 6.99999 15.0001 7.4477 15.0001 7.99999C15.0001 8.55227 15.4479 8.99999 16.0001 8.99999ZM15.0001 12C15.0001 12.5523 14.5524 13 14.0001 13C13.4479 13 13.0001 12.5523 13.0001 12C13.0001 11.4477 13.4479 11 14.0001 11C14.5524 11 15.0001 11.4477 15.0001 12Z" fill="#36373B"/>
</g>
</svg>
