<svg viewBox="0 0 130 130" fill="none" xmlns="http://www.w3.org/2000/svg">
<path d="M56.6775 14.4054C71.2934 25.7032 82.2437 39.7533 88.0726 57.4628C89.885 55.2376 96.3733 43.4727 96.9813 38.684C96.9813 35.2262 101.179 44.7402 103.81 49.1045C119.917 75.8524 116.34 112.117 81.1388 123.782C77.6719 124.929 72.6637 127.12 74.0084 123.782C79.352 110.563 81.6825 95.4224 79.1861 87.9957C77.1515 81.9281 72.7843 76.6347 65.792 71.5536C59.423 80.3308 52.8422 87.9383 52.8422 98.9666C52.8422 105.665 59.6686 118.139 62.8374 123.782C64.5913 126.907 60.2496 126.018 56.6775 125.347C19.3833 118.351 6.96339 77.395 28.6827 52.5741C40.3495 34.5986 49.1798 17.5918 49.1798 4C49.1798 7.46953 53.8595 12.2318 56.6775 14.4054Z" fill="#FF7630"/>
<path d="M56.6775 14.4054C71.2934 25.7032 82.2437 39.7533 88.0726 57.4628C89.885 55.2376 96.3733 43.4727 96.9813 38.684C96.9813 35.2262 101.179 44.7402 103.81 49.1045C119.917 75.8524 116.34 112.117 81.1388 123.782C77.6719 124.929 72.6637 127.12 74.0084 123.782C79.352 110.563 81.6825 95.4224 79.1861 87.9957C77.1515 81.9281 72.7843 76.6347 65.792 71.5536C59.423 80.3308 52.8422 87.9383 52.8422 98.9666C52.8422 105.665 59.6686 118.139 62.8374 123.782C64.5913 126.907 60.2496 126.018 56.6775 125.347C19.3833 118.351 6.96339 77.395 28.6827 52.5741C40.3495 34.5986 49.1798 17.5918 49.1798 4C49.1798 7.46953 53.8595 12.2318 56.6775 14.4054Z" fill="url(#paint0_linear_2_15035)"/>
<defs>
<linearGradient id="paint0_linear_2_15035" x1="99.8462" y1="-7.90243" x2="-5.21441" y2="44.8733" gradientUnits="userSpaceOnUse">
<stop stop-color="#FF973A"/>
<stop offset="0.352391" stop-color="#FF8939"/>
<stop offset="1" stop-color="#FF5A21"/>
</linearGradient>
</defs>
</svg>
