<svg xmlns="http://www.w3.org/2000/svg" width="16" height="15.998" viewBox="0 0 16 15.998"><path d="M-4381.25,470.968a1.031,1.031,0,0,1-.25.031h-13a1.032,1.032,0,0,1-.25-.031A1.025,1.025,0,0,1-4395,471a1,1,0,0,1-1-1v-3a1,1,0,0,1,1-1,1,1,0,0,1,1,1v2h12v-2a1,1,0,0,1,1-1,1,1,0,0,1,1,1v3a1,1,0,0,1-1,1A1.037,1.037,0,0,1-4381.25,470.968Zm-7.544-5.361a1.01,1.01,0,0,1-.328-.218l-3.535-3.535a1,1,0,0,1,0-1.415,1,1,0,0,1,1.414,0l2.242,2.243V456a1,1,0,0,1,1-1,1,1,0,0,1,1,1v6.681l2.243-2.243a1,1,0,0,1,1.413,0,1,1,0,0,1,0,1.415l-3.535,3.535a1.01,1.01,0,0,1-.328.218A1,1,0,0,1-4388,466,1,1,0,0,1-4388.794,465.607Z" transform="translate(4396.001 -455)" fill="#fff"/></svg>