<svg width="17" height="21" viewBox="0 0 17 21" fill="none" xmlns="http://www.w3.org/2000/svg">
<path d="M5.33762 6.88874C5.33762 6.88874 5.20274 2.11931 1.0823 0.337023C0.414171 3.91309 5.33442 6.88847 5.33442 6.88847L5.33762 6.88874ZM9.31517 12.8141C9.31517 12.8141 10.7406 6.99135 8.03536 4.96167C6.82616 7.66412 9.31517 12.8141 9.31517 12.8141ZM0.332465 6.12429C1.48865 10.1358 6.67356 10.8796 6.67356 10.8796C6.67356 10.8796 4.59216 6.47713 0.633123 6.14048C0.539564 6.13253 0.435281 6.12757 0.332465 6.12429ZM16.2589 19.471C16.2589 19.471 16.3948 14.1594 11.7872 11.9781C11.1093 16.4176 16.2589 19.471 16.2589 19.471ZM3.09099 13.0679L3.00991 13.0743C3.00991 13.0743 5.21052 16.842 10.6659 16.0621C9.9286 15.1942 9.01683 14.4806 7.98666 13.9654C6.95649 13.4502 5.82966 13.1441 4.67543 13.066C4.14811 13.019 3.61768 13.0196 3.09099 13.0679ZM7.72613 17.6251C6.97419 17.7021 6.23971 17.8917 5.54879 18.1871C8.20005 19.8394 11.4106 20.4148 14.4841 19.7886C12.9601 18.5897 11.1172 17.8355 9.17197 17.6145C8.68944 17.5731 8.20417 17.5768 7.72287 17.6256L7.72613 17.6251Z" fill="#FF6F00"/>
</svg>
