<svg viewBox="0 0 130 107" fill="none" xmlns="http://www.w3.org/2000/svg">
<path d="M33.5677 2.07398e-06C43.2761 2.07398e-06 54.1771 4.43787 64.9867 14.9624C97.1258 -16.2643 130 6.08055 130 39.0314C130 71.9953 64.9867 107 64.9867 107C64.9867 107 0 71.9953 0 39.0314C0 17.1862 14.4707 2.07398e-06 33.5677 2.07398e-06Z" fill="#FF7630"/>
<path d="M33.5677 2.07398e-06C43.2761 2.07398e-06 54.1771 4.43787 64.9867 14.9624C97.1258 -16.2643 130 6.08055 130 39.0314C130 71.9953 64.9867 107 64.9867 107C64.9867 107 0 71.9953 0 39.0314C0 17.1862 14.4707 2.07398e-06 33.5677 2.07398e-06Z" fill="url(#paint0_linear_2_9333)"/>
<defs>
<linearGradient id="paint0_linear_2_9333" x1="112" y1="-10.439" x2="0.468347" y2="76.9764" gradientUnits="userSpaceOnUse">
<stop stop-color="#FF973A"/>
<stop offset="0.352391" stop-color="#FF8939"/>
<stop offset="1" stop-color="#FF5A21"/>
</linearGradient>
</defs>
</svg>
