<svg xmlns="http://www.w3.org/2000/svg" width="16" height="16" viewBox="0 0 16 16">
  <path id="路径_14" data-name="路径 14" d="M16,13.422a1.048,1.048,0,0,1-1.09,1.124H12.641c-.282-1.454-2.012-2.528-3.031-3.045a9.632,9.632,0,0,1,.935-.327v-.561a2.425,2.425,0,0,1-.6-.474,5.68,5.68,0,0,0,.827-2.116,2.368,2.368,0,0,0,.75-1.5.661.661,0,0,0-.75-.727,6.007,6.007,0,0,0-.709-2.785,7.209,7.209,0,0,0,1.572.3c3,0,2.727,3.371,2.727,3.371s.546-.07.546.562a1.727,1.727,0,0,1-.546,1.124c-.374,1.967-1.636,2.249-1.636,2.249v.561C13.92,11.173,16,12.929,16,13.422ZM9.455,8c-.5,2.545-2.182,2.91-2.182,2.91v.727c1.591,0,4.363,2.272,4.363,2.908A1.373,1.373,0,0,1,10.182,16H1.455C.137,16,0,14.545,0,14.545c.454-1.863,4.363-2.908,4.363-2.908V10.91A5.569,5.569,0,0,1,2.182,8a2.3,2.3,0,0,1-.727-1.455c-.046-.863.727-.727.727-.727V4.363C.636,3.772.727,2.91.727,2.91a3.631,3.631,0,0,0,1.455,0A5.761,5.761,0,0,1,.727,0a16.609,16.609,0,0,0,5.09,1.455c4,0,3.637,4.363,3.637,4.363a.647.647,0,0,1,.727.727A2.22,2.22,0,0,1,9.455,8Z" fill-rule="evenodd" opacity="0.3"/>
</svg>
