<svg xmlns="http://www.w3.org/2000/svg" width="16" height="11" viewBox="0 0 16 11">
  <path id="路径_22667" data-name="路径 22667" d="M14.857,11H11.429V9.9a1.517,1.517,0,0,0,1.143-1.4A1.619,1.619,0,0,0,10.857,7H9.714A1.619,1.619,0,0,0,8,8.5,1.517,1.517,0,0,0,9.143,9.9V11H5.714a1.079,1.079,0,0,1-1.143-1V1A1.079,1.079,0,0,1,5.714,0h9.143A1.079,1.079,0,0,1,16,1v9A1.079,1.079,0,0,1,14.857,11ZM2.286,7A2.157,2.157,0,0,1,0,5,2.157,2.157,0,0,1,2.286,3,2.157,2.157,0,0,1,4.571,5,2.157,2.157,0,0,1,2.286,7Z" fill-rule="evenodd" opacity="0.3"/>
</svg>
