<svg width="24" height="24" viewBox="0 0 24 24" fill="none" xmlns="http://www.w3.org/2000/svg">
<path fill-rule="evenodd" clip-rule="evenodd" d="M11.2068 4.07637C9.4744 2.62495 7.75282 2 6.19711 2C2.67152 2 0 5.21237 0 9.29559C0 10.7424 0.661494 12.2102 1.67383 13.6094L3.48206 11.8011C2.85692 10.8614 2.52632 10.0102 2.52632 9.29559C2.52632 7.89786 2.94863 6.62771 3.71545 5.71914C4.18485 5.16297 4.99643 4.49999 6.1971 4.49999C7.21191 4.49999 8.31376 4.96685 9.42341 5.85979L11.2068 4.07637ZM8.8848 17.0083C10.0788 17.8834 11.1967 18.603 11.9978 19.0938C13.0966 18.4208 14.7909 17.3181 16.4605 15.974C19.6464 13.4093 21.4737 10.9751 21.4737 9.29559C21.4737 7.89705 21.0518 6.62664 20.2857 5.71839C20.269 5.69862 20.2519 5.67871 20.2344 5.6587L22.0145 3.87859C23.2479 5.20506 24 7.1275 24 9.29559C24 15.4571 11.9975 22 11.9975 22C11.9975 22 9.68503 20.7389 7.09053 18.8025L8.8848 17.0083Z" fill="white"/>
<rect x="18.8691" y="0.0625" width="2.69772" height="24.2307" transform="rotate(45 18.8691 0.0625)" fill="white"/>
</svg>
