<svg xmlns="http://www.w3.org/2000/svg" width="14.097" height="16" viewBox="0 0 14.097 16">
  <path id="路径_13" data-name="路径 13" d="M10.686,8c-.5,2.545-2.182,2.91-2.182,2.91v.727c1.591,0,5.594,2.272,5.594,2.908A1.373,1.373,0,0,1,12.644,16H1.455C.137,16,0,14.545,0,14.545c.454-1.863,5.594-2.908,5.594-2.908V10.91A5.569,5.569,0,0,1,3.413,8a2.3,2.3,0,0,1-.727-1.455c-.046-.863.727-.727.727-.727V4.363C1.867,3.772,1.958,2.91,1.958,2.91a3.631,3.631,0,0,0,1.455,0A5.761,5.761,0,0,1,1.958,0a16.609,16.609,0,0,0,5.09,1.455c4,0,3.637,4.363,3.637,4.363a.647.647,0,0,1,.727.727A2.22,2.22,0,0,1,10.686,8Z" fill-rule="evenodd" opacity="0.3"/>
</svg>
