<svg xmlns="http://www.w3.org/2000/svg" width="10.34" height="13.442" viewBox="0 0 10.34 13.442">
  <path id="å•logo" d="M518.032,2251.285a.776.776,0,0,0-.254-.365.694.694,0,0,0-.689-.075,1.106,1.106,0,0,0-.467.581c-.129.253-.258.507-.4.752a1.105,1.105,0,0,1-.51.5.828.828,0,0,1-.795-.219c-.237-.187-.448-.406-.691-.586a.889.889,0,0,0-.5-.224c-.345,0-.614.317-.8.568-.106.14-.312.425-.421.563a1.892,1.892,0,0,1-.247.254.633.633,0,0,1-.106.076.809.809,0,0,1-.776-.06,1.883,1.883,0,0,1-.538-.472,3.4,3.4,0,0,1-.357-.542,2.961,2.961,0,0,1-.138-.289c.221,1.258.963,2.324,1.8,2.338a.815.815,0,0,0,.345-.066,4.386,4.386,0,0,0,.877-.723.79.79,0,0,1,.446-.184.636.636,0,0,1,.444.186,5.549,5.549,0,0,1,.432.44,5.391,5.391,0,0,0,.488.464,1.244,1.244,0,0,0,.593.291.813.813,0,0,0,.617-.164,2.1,2.1,0,0,0,.38-.371,3.314,3.314,0,0,0,.252-.362c.037-.061.077-.123.109-.187.014-.029.026-.061.038-.091a.338.338,0,0,0,.037-.1,5.806,5.806,0,0,1-.038.769,6.068,6.068,0,0,1-.345,1.439,1.077,1.077,0,0,1-.039.1l0,0q-.048.126-.1.247a3.848,3.848,0,0,1-6.986,0c-.038-.082-.073-.166-.105-.25l0-.005a6.115,6.115,0,0,1,2.314-7.329l.046-.031a2.3,2.3,0,0,1,2.48,0l.046.031a6.139,6.139,0,0,1,1,.832h0l.028.029a.635.635,0,0,0,.16.115.652.652,0,0,0,.8-.993l-.066-.082a8.792,8.792,0,0,0-1.737-1.624,2.555,2.555,0,0,0-2.957,0,8.736,8.736,0,0,0-3.5,8.966,5.093,5.093,0,0,0,9.949.009c.005-.024.01-.048.015-.071a.05.05,0,0,0,0-.006c0-.019.008-.038.011-.056a8.808,8.808,0,0,0,.092-2.882c-.013-.1-.042-.345-.089-.589a4.422,4.422,0,0,0-.138-.549Z" transform="translate(-508 -2246)" fill="#ffca28"/>
</svg>
