<svg width="100" height="691" viewBox="0 0 100 691" fill="none" xmlns="http://www.w3.org/2000/svg">
<mask id="path-1-inside-1_5147_72652" fill="white">
<path d="M80.0473 615.773V640.463L4.45727 640.543C3.48727 640.543 2.68726 641.333 2.68726 642.313L2.69727 656.453C2.69727 657.433 3.48726 658.223 4.46726 658.223L80.0473 658.143V689.103C80.0473 690.013 81.1073 690.533 81.8173 689.953L95.0773 679.353C95.6254 678.915 96.0681 678.36 96.3728 677.728C96.6774 677.096 96.8362 676.404 96.8373 675.703V615.773C96.8373 614.793 96.0473 614.003 95.0673 614.003H81.8073C80.8473 614.003 80.0473 614.793 80.0473 615.773ZM4.44727 19.9126L95.0673 92.3326C95.7773 92.9026 96.8373 92.3926 96.8373 91.4826V73.3726C96.8373 71.9526 96.1873 70.6026 95.0773 69.7226L30.7973 18.3426L95.0773 18.3426C96.0573 18.3426 96.8473 17.5526 96.8473 16.5726V2.4326C96.8473 1.4526 96.0573 0.662598 95.0773 0.662598L4.45727 0.662598C3.47727 0.662598 2.68726 1.4526 2.68726 2.4326V16.2626C2.68726 17.6826 3.33727 19.0226 4.44727 19.9126ZM4.44727 70.9726L35.6173 95.8826L4.44727 120.793C3.89809 121.232 3.45474 121.788 3.15007 122.422C2.8454 123.056 2.68722 123.75 2.68726 124.453V138.283C2.68726 139.263 3.47727 140.053 4.45727 140.053H95.0773C96.0473 140.053 96.8473 139.263 96.8473 138.283V126.683C96.8473 123.843 95.5573 121.153 93.3373 119.373L4.46726 48.3526C3.75726 47.7826 2.69727 48.2926 2.69727 49.2026V67.3126C2.68727 68.7426 3.33727 70.0826 4.44727 70.9726ZM70.6573 122.363H28.9073L49.7773 105.683L70.6573 122.363ZM4.46726 526.733L95.0873 454.313C95.6354 453.875 96.0781 453.32 96.3828 452.688C96.6874 452.056 96.8462 451.364 96.8473 450.663V436.823C96.8473 435.843 96.0573 435.053 95.0773 435.053H4.45727C3.47727 435.053 2.68726 435.843 2.68726 436.823V450.653C2.68726 452.073 3.33727 453.423 4.44727 454.303L35.6173 479.213L4.44727 504.123C3.89914 504.56 3.45638 505.115 3.15174 505.747C2.8471 506.379 2.68836 507.071 2.68726 507.773V525.883C2.68726 526.793 3.74726 527.303 4.46726 526.733ZM49.7773 469.403L28.8973 452.713H70.6573L49.7773 469.403ZM99.1973 270.113C99.1973 242.813 77.0673 220.683 49.7673 220.683C22.4673 220.683 0.337265 242.813 0.337265 270.113C0.337265 297.413 22.4673 319.543 49.7673 319.543C77.0673 319.553 99.1973 297.413 99.1973 270.113ZM17.1373 270.113C17.1373 252.573 31.7473 238.363 49.7673 238.363C67.7873 238.363 82.4073 252.573 82.4073 270.113C82.4073 287.653 67.7973 301.863 49.7673 301.863C31.7473 301.873 17.1373 287.653 17.1373 270.113ZM95.0773 584.043H30.7973L95.0873 532.663C95.6354 532.225 96.0781 531.67 96.3828 531.038C96.6874 530.406 96.8462 529.714 96.8473 529.013V515.163C96.8473 514.193 96.0573 513.393 95.0773 513.393H51.4073C50.3473 513.393 49.3173 513.753 48.4873 514.423L30.0773 529.133C29.2673 529.783 29.7273 531.083 30.7573 531.083H68.7573L4.44727 582.473C3.89914 582.91 3.45638 583.465 3.15174 584.097C2.8471 584.729 2.68836 585.421 2.68726 586.123V599.953C2.68726 600.933 3.47727 601.723 4.45727 601.723H95.0773C96.0473 601.723 96.8473 600.933 96.8473 599.953V585.813C96.8473 584.833 96.0473 584.043 95.0773 584.043ZM75.4373 411.283H95.0773C96.0573 411.283 96.8473 410.493 96.8473 409.513L96.8473 337.143C96.8473 336.163 96.0573 335.373 95.0773 335.373H4.45727C3.47727 335.373 2.68726 336.163 2.68726 337.143L2.68726 351.283C2.68726 352.263 3.47727 353.053 4.45727 353.053H80.0373V393.603L45.7773 366.233C45.1373 365.723 44.2173 365.723 43.5673 366.233L4.43726 397.503C3.88914 397.94 3.44639 398.495 3.14175 399.127C2.83711 399.759 2.67837 400.451 2.67727 401.153V419.263C2.67727 420.173 3.73727 420.683 4.44727 420.113L44.6573 387.973L72.4973 410.253C73.3473 410.913 74.3773 411.283 75.4373 411.283ZM2.68726 163.053V205.013C2.68726 206.433 3.33727 207.783 4.44727 208.663L17.7173 219.263C18.4273 219.833 19.4873 219.323 19.4873 218.413V178.963H95.0773C96.0573 178.963 96.8473 178.173 96.8473 177.193V163.053C96.8473 162.073 96.0573 161.283 95.0773 161.283H4.45727C3.48727 161.283 2.68726 162.083 2.68726 163.053Z"/>
</mask>
<path d="M80.0473 615.773V640.463L4.45727 640.543C3.48727 640.543 2.68726 641.333 2.68726 642.313L2.69727 656.453C2.69727 657.433 3.48726 658.223 4.46726 658.223L80.0473 658.143V689.103C80.0473 690.013 81.1073 690.533 81.8173 689.953L95.0773 679.353C95.6254 678.915 96.0681 678.36 96.3728 677.728C96.6774 677.096 96.8362 676.404 96.8373 675.703V615.773C96.8373 614.793 96.0473 614.003 95.0673 614.003H81.8073C80.8473 614.003 80.0473 614.793 80.0473 615.773ZM4.44727 19.9126L95.0673 92.3326C95.7773 92.9026 96.8373 92.3926 96.8373 91.4826V73.3726C96.8373 71.9526 96.1873 70.6026 95.0773 69.7226L30.7973 18.3426L95.0773 18.3426C96.0573 18.3426 96.8473 17.5526 96.8473 16.5726V2.4326C96.8473 1.4526 96.0573 0.662598 95.0773 0.662598L4.45727 0.662598C3.47727 0.662598 2.68726 1.4526 2.68726 2.4326V16.2626C2.68726 17.6826 3.33727 19.0226 4.44727 19.9126ZM4.44727 70.9726L35.6173 95.8826L4.44727 120.793C3.89809 121.232 3.45474 121.788 3.15007 122.422C2.8454 123.056 2.68722 123.75 2.68726 124.453V138.283C2.68726 139.263 3.47727 140.053 4.45727 140.053H95.0773C96.0473 140.053 96.8473 139.263 96.8473 138.283V126.683C96.8473 123.843 95.5573 121.153 93.3373 119.373L4.46726 48.3526C3.75726 47.7826 2.69727 48.2926 2.69727 49.2026V67.3126C2.68727 68.7426 3.33727 70.0826 4.44727 70.9726ZM70.6573 122.363H28.9073L49.7773 105.683L70.6573 122.363ZM4.46726 526.733L95.0873 454.313C95.6354 453.875 96.0781 453.32 96.3828 452.688C96.6874 452.056 96.8462 451.364 96.8473 450.663V436.823C96.8473 435.843 96.0573 435.053 95.0773 435.053H4.45727C3.47727 435.053 2.68726 435.843 2.68726 436.823V450.653C2.68726 452.073 3.33727 453.423 4.44727 454.303L35.6173 479.213L4.44727 504.123C3.89914 504.56 3.45638 505.115 3.15174 505.747C2.8471 506.379 2.68836 507.071 2.68726 507.773V525.883C2.68726 526.793 3.74726 527.303 4.46726 526.733ZM49.7773 469.403L28.8973 452.713H70.6573L49.7773 469.403ZM99.1973 270.113C99.1973 242.813 77.0673 220.683 49.7673 220.683C22.4673 220.683 0.337265 242.813 0.337265 270.113C0.337265 297.413 22.4673 319.543 49.7673 319.543C77.0673 319.553 99.1973 297.413 99.1973 270.113ZM17.1373 270.113C17.1373 252.573 31.7473 238.363 49.7673 238.363C67.7873 238.363 82.4073 252.573 82.4073 270.113C82.4073 287.653 67.7973 301.863 49.7673 301.863C31.7473 301.873 17.1373 287.653 17.1373 270.113ZM95.0773 584.043H30.7973L95.0873 532.663C95.6354 532.225 96.0781 531.67 96.3828 531.038C96.6874 530.406 96.8462 529.714 96.8473 529.013V515.163C96.8473 514.193 96.0573 513.393 95.0773 513.393H51.4073C50.3473 513.393 49.3173 513.753 48.4873 514.423L30.0773 529.133C29.2673 529.783 29.7273 531.083 30.7573 531.083H68.7573L4.44727 582.473C3.89914 582.91 3.45638 583.465 3.15174 584.097C2.8471 584.729 2.68836 585.421 2.68726 586.123V599.953C2.68726 600.933 3.47727 601.723 4.45727 601.723H95.0773C96.0473 601.723 96.8473 600.933 96.8473 599.953V585.813C96.8473 584.833 96.0473 584.043 95.0773 584.043ZM75.4373 411.283H95.0773C96.0573 411.283 96.8473 410.493 96.8473 409.513L96.8473 337.143C96.8473 336.163 96.0573 335.373 95.0773 335.373H4.45727C3.47727 335.373 2.68726 336.163 2.68726 337.143L2.68726 351.283C2.68726 352.263 3.47727 353.053 4.45727 353.053H80.0373V393.603L45.7773 366.233C45.1373 365.723 44.2173 365.723 43.5673 366.233L4.43726 397.503C3.88914 397.94 3.44639 398.495 3.14175 399.127C2.83711 399.759 2.67837 400.451 2.67727 401.153V419.263C2.67727 420.173 3.73727 420.683 4.44727 420.113L44.6573 387.973L72.4973 410.253C73.3473 410.913 74.3773 411.283 75.4373 411.283ZM2.68726 163.053V205.013C2.68726 206.433 3.33727 207.783 4.44727 208.663L17.7173 219.263C18.4273 219.833 19.4873 219.323 19.4873 218.413V178.963H95.0773C96.0573 178.963 96.8473 178.173 96.8473 177.193V163.053C96.8473 162.073 96.0573 161.283 95.0773 161.283H4.45727C3.48727 161.283 2.68726 162.083 2.68726 163.053Z" stroke="white" style="stroke:white;stroke:white;stroke-opacity:1;" stroke-width="2" mask="url(#path-1-inside-1_5147_72652)"/>
</svg>
