<svg width="897" height="151" viewBox="0 0 897 151" fill="none" xmlns="http://www.w3.org/2000/svg">
<g clip-path="url(#clip0_6001_63110)">
<path fill-rule="evenodd" clip-rule="evenodd" d="M895.491 64.1334V87.3413H818.279V1.27533H895.491V11.9823L883.845 24.4851H841.443V33.1884H884.874V56.3972H841.443V64.1334H895.491ZM814.415 70.7731L814.419 87.3413L797.88 87.3393L773.754 63.1664H760.37V87.3413H737.207V66.3895L749.754 45.7434L741.326 30.9787L737.207 23.3614V1.27533H805.722L814.419 9.98927V39.8445L799.522 55.8508L814.415 70.7731ZM791.255 24.4851H760.37V39.9576L782.998 39.8445L791.255 31.3104V24.4851ZM679.298 29.7922V58.8254L684.596 64.1334H702.461L687.984 87.3413H663.359L656.134 80.103V9.00659L663.998 1.27533H689.915L703.427 24.4851H684.596L679.298 29.7922ZM629.11 35.283L612.73 64.1634H612.703H598.226H598.148L580.853 34.3885V87.3722H557.689V1.30628L588.28 1.29951L605.042 30.5668L621.929 1.26953L652.274 1.30628V87.3722H629.11V35.283ZM439.941 87.3413V1.27533H517.153V14.5066L506.998 24.4851H463.105V33.1884H506.536V56.3972H463.105V64.1334H517.153V87.3413H439.941ZM412.917 35.283L396.537 64.1634H396.51H382.032H381.955L364.66 34.3885V87.3722H341.496V1.30628L372.087 1.29951L388.849 30.5668L405.736 1.26953L436.081 1.30628V87.3722H412.917V35.283ZM337.636 87.3413H314.472V78.7589H269.92L261.389 87.3413L230.502 87.3161L314.472 1.27533H337.636V87.3413ZM314.472 33.9407L291.11 57.4301L314.472 57.4447V33.9407ZM212.452 24.4851L202.515 34.8459V64.1334H215.119L226.701 52.5281H214.097V34.1545H259.459V52.5281L224.713 87.3413H179.351V26.0066L203.998 1.27533H291.498L267.998 24.4851H212.452ZM98.279 87.3413V64.1334V56.3972V33.1884V24.4851V1.27533H121.443H175.491V14.5008L165.498 24.4851H121.443V33.1884H164.874V56.3972H121.443V64.1334H175.491V87.3413H121.443H98.279ZM63.8281 87.348L47.0654 58.0808L30.1792 87.379L3.69457 87.3413H-0.166016V1.27533H22.9975V53.3646L33.6373 34.636L39.377 24.4851H39.405H53.8823H53.9595L55.2798 26.8804L71.2549 54.2591V1.27533H94.4185V87.3413H90.5579L63.8281 87.348Z" fill="#E3E3E3" style="fill:#E3E3E3;fill:color(display-p3 0.8902 0.8902 0.8902);fill-opacity:1;"/>
</g>
<g clip-path="url(#clip1_6001_63110)">
<path fill-rule="evenodd" clip-rule="evenodd" d="M745.87 45.7674L720.935 87.3718L692.834 87.335L718.69 44.3454L693.798 1.30072L720.508 1.29492L745.87 45.7674Z" fill="#FF9D2B" style="fill:#FF9D2B;fill:color(display-p3 1.0000 0.6157 0.1686);fill-opacity:1;"/>
</g>
<path d="M3.148 128.288H28.852V131.9H3.148V128.288ZM238.32 125.516V121.288H231.096V118.348H241.512V128.4H234.54V133.16C234.54 134.14 234.708 134.28 235.772 134.28H238.852C239.832 134.28 239.972 133.748 240.112 130.612C240.784 131.172 242.156 131.676 242.996 131.9C242.66 136.1 241.82 137.22 239.132 137.22H235.324C232.272 137.22 231.348 136.324 231.348 133.216V125.516H238.32ZM226.14 134.392V139.012C227.596 139.432 229.388 139.544 231.516 139.544C233.644 139.572 241.064 139.572 243.584 139.432C243.08 140.216 242.52 141.728 242.324 142.736H231.516C226.336 142.736 223.004 142.036 220.792 138.9C220.512 140.804 220.092 142.456 219.504 143.828C218.888 143.436 217.404 142.708 216.704 142.4C218.076 139.572 218.356 134.924 218.412 130.108L221.464 130.332C221.436 131.564 221.38 132.796 221.324 133.944C221.772 135.344 222.332 136.352 223.06 137.164V128.484H217.432V125.572H222.388V122.968H218.216V120.084H222.388V117.368H225.496V120.084H229.668V122.968H225.496V125.572H230.34V128.484H226.14V131.508H230.088V134.392H226.14ZM442.328 134.672H437.988C438.8 135.68 439.668 136.464 440.704 137.108C441.516 136.352 441.992 135.568 442.328 134.672ZM437.708 130.136V131.956H442.832C442.86 131.648 442.86 131.34 442.86 131.032V130.136H437.708ZM437.708 125.852V127.644H442.86V125.852H437.708ZM451.624 125.852H446.36V127.644H451.624V125.852ZM451.624 131.956V130.136H446.36V131.06C446.36 131.34 446.36 131.648 446.332 131.956H451.624ZM454.928 134.672H445.94C445.576 136.072 444.932 137.416 443.896 138.564C447.536 139.768 452.128 139.88 457.812 139.852C457.196 140.608 456.58 142.008 456.384 143.156C450.308 143.016 445.156 142.596 441.152 140.832C439.276 141.896 436.812 142.82 433.564 143.464C433.172 142.68 432.276 141.28 431.548 140.496C434.236 140.076 436.28 139.516 437.876 138.844C436.784 138.004 435.832 136.94 434.992 135.708L437.54 134.672H434.572V123.164H442.86V121.512H432.136V118.544H456.664V121.512H446.36V123.164H454.928V134.672ZM653.644 125.88H650.76C650.396 127.784 649.948 129.66 649.5 131.312C650.256 131.9 651.012 132.516 651.768 133.104C652.664 131.004 653.28 128.596 653.644 125.88ZM655.044 122.744L657.088 123.192C656.668 128.12 655.772 132.096 654.344 135.26C655.632 136.408 656.696 137.5 657.424 138.452L655.24 141.308C654.624 140.412 653.7 139.376 652.664 138.34C651.18 140.468 649.36 142.12 647.176 143.408C646.7 142.596 645.804 141.392 645.104 140.776C647.176 139.74 648.884 138.172 650.256 136.072C648.8 134.812 647.288 133.552 645.888 132.516C646.476 130.696 647.064 128.372 647.568 125.88H645.58V122.828H648.156C648.492 120.924 648.744 119.048 648.912 117.34L652.216 117.592C651.992 119.244 651.712 121.008 651.376 122.828H654.484L655.044 122.744ZM671.676 128.792V131.956H666.076V139.824C666.076 141.532 665.712 142.372 664.536 142.904C663.416 143.38 661.82 143.464 659.636 143.436C659.468 142.512 658.964 141.14 658.488 140.272C659.916 140.3 661.54 140.3 661.988 140.3C662.464 140.3 662.604 140.188 662.604 139.768V131.956H656.696V128.792H662.604V126.132C663.808 125.068 665.04 123.5 666.02 122.016H657.816V118.992H668.204L668.988 118.824L671.228 120.448C669.912 122.492 668.064 124.844 666.076 126.692V128.792H671.676ZM884.308 119.272V122.436H870.868V119.272H884.308ZM869.832 134.672L870.196 137.584C866.668 138.536 862.916 139.488 860.06 140.244L859.388 137.052C860.48 136.828 861.796 136.548 863.224 136.24V130.444H860.2V127.392H863.224V122.436H859.92V119.356H869.468V122.436H866.444V127.392H869.216V130.444H866.444V135.484L869.832 134.672ZM881.788 140.188H882.768C883.216 140.188 883.328 139.656 883.384 136.352C884.056 136.94 885.456 137.472 886.324 137.724C886.044 142.036 885.232 143.296 883.104 143.296H881.2C878.624 143.296 878.036 142.26 878.036 139.152V130.304H876.132C875.796 136.856 874.788 141.14 868.348 143.436C868.068 142.68 867.172 141.476 866.5 140.888C872.072 139.012 872.688 135.764 872.912 130.304H869.748V127.112H885.736V130.304H881.34V139.124C881.34 140.076 881.396 140.188 881.788 140.188Z" fill="#BEBEBE" style="fill:#BEBEBE;fill:color(display-p3 0.7458 0.7458 0.7458);fill-opacity:1;"/>
<defs>
<clipPath id="clip0_6001_63110">
<rect width="896.622" height="88" fill="white" style="fill:white;fill:white;fill-opacity:1;"/>
</clipPath>
<clipPath id="clip1_6001_63110">
<rect width="54" height="87" fill="white" style="fill:white;fill:white;fill-opacity:1;" transform="translate(692 1)"/>
</clipPath>
</defs>
</svg>
