<svg xmlns="http://www.w3.org/2000/svg" xmlns:xlink="http://www.w3.org/1999/xlink" width="54" height="36" viewBox="0 0 54 36"><defs><linearGradient id="a" x1="0.219" x2="0.822" y2="1" gradientUnits="objectBoundingBox"><stop offset="0" stop-color="#e34311"/><stop offset="1" stop-color="#f88f3e"/></linearGradient><linearGradient id="b" x1="0.5" x2="0.5" y2="1" gradientUnits="objectBoundingBox"><stop offset="0" stop-color="#ffc800"/><stop offset="1" stop-color="#ffe082"/></linearGradient></defs><g transform="translate(-662 -1397)"><g transform="translate(662 1397)"><path d="M30.724,36c-12.863-.083-16.095,0-16.095,0v-.105H0V6A6,6,0,0,1,6,0H27.445a6.031,6.031,0,0,1,1.125.105H54c-2.561,10.086-7.2,24.578-7.2,24.578A16.366,16.366,0,0,1,30.862,36Z" fill="url(#a)"/></g><g transform="translate(671.034 1403.631) rotate(-6)"><path d="M24.427,14.434h0S20.144,20,15.544,20.946v2.37h4.441v2.221H8.882V23.316h4.441v-2.3c-4.6-.742-8.882-6.584-8.882-6.584h0L0,11.694V4.441H4.441V0H24.427V4.441h4.441v7.252ZM4.441,6.662H2.221V9.993l2.221,1.391Zm22.206,0H24.427v4.722l2.221-1.391Z" transform="translate(0 0)" fill-rule="evenodd" fill="url(#b)"/><text transform="translate(10.801 16.001)" fill="#212121" font-size="16" font-family="Impact"><tspan x="0" y="0">1</tspan></text></g></g></svg>